<?xml version='1.0' encoding='utf-8'?>
<svg xmlns="http://www.w3.org/2000/svg" width="8.5in" height="11in" clip-rule="evenodd" fill-rule="evenodd" image-rendering="optimizeQuality" shape-rendering="geometricPrecision" text-rendering="geometricPrecision" version="1.1" viewBox="0 0 8500 11000"> <defs> <style type="text/css">.fil0 {fill:#CE3492}</style> </defs> <path class="fil0" d="m-4199 1246c-317-816-550-2206-518-3176 61-1819 75-1427 550-3106 163-588 1003-2108 1385-2556 1264-1474 1852-1931 3438-2705l527-247c1320-588 2318-742 3797-690 1511 56 1558 168 2976 574 457 131 2113 1077 2453 1395l1213 1180c532 564 653 900 938 1287 690 942 1269 2696 1385 3792 117 1110 33 2682-275 3759-1203 4193-4422 6134-7808 6455 466-1567 406-1292 1343-2328 560-616 1101-1175 1665-1800 849-933 961-975 1390-2379l-3064 1661-1637-1558c-187 177-303 471-420 700l-1147 2206c-75-457 5-1427-42-2006-117-1376-518-2393-1241-3498-159-243-354-480-597-732-177-187-541-485-667-672 229-280 667-742 956-984 2206 2006 3517 187 3461-140-229-368-1511-1441-1940-1828-336-303-644-583-966-886-1077-1007-826-1007-3120 1021l-1992 1754-89 294 2328 7127c23 336-532 1311-709 1688-121 261-247 522-373 784-1675-1054-2892-2565-3190-4380l-9-5zm-3320 16310 313 100c9 9 13 19 10 33l-3 40c-2 12-2 25 0 38l45 13 78 4 13-4-7-17 9-43c8-7 19-12 31-17l43 9 732 215 41 16v38l-11 83-76 272-33 77-23 27c-13 3-26 5-39 3l-273-80-32-6 24-87 17 5 14 31 18 2-2-19c-1-11-5-21-11-30-11-2-23-1-35 5l-23 27-18 36c-5 12-14 18-28 18l-181-57-37-18-88-22c-10 1-19 6-27 15l-12 83c-10 5-21 9-34 13l-29 10-20 32 15 12 10-8 30 1c2 1 4 4 5 9l-15 41-21 35c-11 1-21 0-34-2-12-3-24-3-38 0l-35 5c-9 5-16 13-22 24l81 9c9 7 16 15 23 25 3 11 6 23 9 37l-11 83v15l17-7h38l132 31 76 37 60 44c5 10 8 21 10 33l-35 73c-4 8-8 17-11 27l-3 11 4 1c6 7 14 13 25 18l14-37 13-72c1-2 4-4 9-5l34-13 36-5 40 5c10-2 21-5 33-10l43 9 36 18c4 10 10 19 19 28 11 5 21 13 31 25l-104 358-13 72-6 10-227-70c-11-5-18-14-23-25l15-41 25-22 47-100c0-3-1-6-5-9-11-1-22 1-32 6l-36 114-18-2c-9 3-18 8-27 15l-8 43-41-1-316-89c-8 9-15 19-20 31l-58 168-30 14-10 23 10 6c10 10 13 22 9 37l-114 408-20 5 9 10-4 40-39 113 14 4-64 230c-10 7-22 8-35 4l-501-147-44-17 392-1408c3-12 9-23 17-33 6 8 14 15 24 23 8-9 15-19 20-32l-43-9 59-224 16-44 30-14c3-11 0-18-9-22-5-7-8-15-9-25l127-456c6-11 14-18 26-23l38-1c11 2 23 0 35-4l10-23c0-3-2-6-5-9l-43-9-26 23-24 4 68-244zm1174 367v15l15-15-9-6-5 5zm-474-132 8 10 8-13-7-2-9 5zm-692-192c-2 16-1 32 1 49 7 9 17 15 29 19l11-26 1-19c-13-9-27-16-43-23zm1152 376-24 99 14 4 5-3 20-58 9-32-24-11zm-1166-316-14 49 1 12-3 10 15 16 28-6c5-2 11-6 18-10 2-11 3-23 2-37l-48-33zm823 241c2 12 8 23 18 32 3-14-3-25-18-32zm-621-148c-7 6-13 12-18 21l11 15 51 7 16-3-8-25-53-15zm671 227v15h15l14-22-18-5-11 12zm-276-55-13 4-13 33 1 12c10-15 18-31 25-49zm98 29-18 36 14 4c3-12 5-26 4-40zm-419-115c-16 0-34 4-52 11l14 4 45 2c0-6-2-12-7-17zm678 202-116 49-6 21 27-4 12-4 30 16 25 19 10-9 20-47 11-39-14-4zm179 80-10 23 25 4 9-20-24-7zm-757-193c-13 1-25 5-38 12l-41-1-25-7-5 17 3 5c3 12 7 23 14 34 2 6 3 12 2 19l-16 3c-12-1-24 2-36 8l-14 22 18 5 67 46c10 7 21 13 33 17l15-26c0-3-2-6-5-9l-31-24c3-9 9-18 18-25 13 2 21-2 27-15l14-49 10-23c-1-4-4-8-8-10zm126 37-1 42 42 12c-5-10-13-19-23-25-4-10-11-19-19-29zm-524-131-16 33 1 23c2 17 6 35 12 52l13-33-1-12 12-53-21-9zm461 142-16 3 17 9 3-11-4-1zm-253-29c0 8 5 16 13 22-1-9-5-17-13-22zm674 231c-17 7-29 19-37 38l39 11c1-16 1-32-2-49zm-133-13-8 13 7 2 4-14-4-1zm353 149c2 8 8 15 17 20-4-8-10-14-17-20zm-334-95c-11 3-22 8-34 13l-10 8 2 8 18 2c12 2 25-1 36-8 3-11-1-18-12-23zm-125-13-16 14 17 5c2-7 2-13-2-19zm-680-170-8 28 17-21-9-7zm350 103-19-2c3 9 9 18 16 28 8-5 15-12 21-21l-17-5zm-57 66-5 18 36 7c-10-9-20-17-31-25zm-161 36c-8 3-16 7-23 13 9-1 17-5 23-13zm3 57c-8 7-15 15-19 25l61 14c0-8-1-16-5-24l-37-15zm-10 88 15 31h26c-12-12-26-22-41-31zm9 78c-16-2-32-3-48-3l-6 21 29 5 42-3c-4-7-10-14-17-20zm-284-53c0 10 4 20 11 30 0-10-4-20-11-30zm199 103-12 30-3 11 4 1 35 21 18 5-11 27c0 12 3 22 10 33l15-41 4-41-26-26-32-21zm142 46c-16-1-33 1-50 4l-14 22 29 5c17 4 35 7 55 8l8-28-27-12zm119 61-1 18 16-14-14-4zm-51 19 5 9 10-9-9-7-6 6zm419 127c-20 1-43 4-68 10-19 6-31 19-37 38 20 0 42-2 67-7 16-10 28-23 38-42zm178 109c-9 4-19 10-28 18l10 6c7-2 15-6 22-12l6-9-11-3zm101 45-27 30c-1 11-1 24 1 37l20-43c7-3 12-7 16-14-1-4-4-8-9-10zm-585-157-19 44 1 11 9 7 18-51c-1-4-4-8-9-10zm-289-77c-15 1-25 10-30 25l11 94c0 13 1 28 4 42 11-8 22-17 31-29l-4-42c0-15-2-31-6-47 1-15-1-29-7-44zm716 259c1 7 5 14 13 19-1-7-6-14-13-19zm-461-86-6 36 12-4c1-10-1-21-6-32zm371 124c-12 7-22 16-31 29-1 13 0 28 4 42l24-34 11-27c-1-4-4-8-8-10zm58 21-13 19 35 10c-4-11-11-20-22-29zm-584-134-15 30 22 18c3 14 11 28 22 40l16-14c-5-9-10-19-14-31-3-19-13-33-30-43zm90 30c-1 10 0 19 7 28 2-9-1-18-7-28zm53 38-7 24 18 2c1-9-3-18-11-27zm-269-67-8 43 25-8 18-21-34-14zm-248-61c-16 1-33 3-51 7l-21 20 22 3c17 0 33-1 50-4l21-20-21-6zm1049 311c-11 10-24 18-38 27-16 1-25 8-29 22 15-1 31-4 48-9 8-12 14-25 19-40zm-724-175c-2 12 0 24 6 36 8 7 18 13 29 16l10-23-45-28zm515 177-7 24 18 5 7-24-18-5zm-613-176c-2 18 6 31 23 41l5-33-28-8zm162 70-7 39 16-3c2-12-2-24-9-37zm708 219c-6 3-10 8-12 15 6-4 10-9 12-15zm-1135-329-8 16 2 8-2 7 4 13c6 11 14 20 27 27l12-31-8-10c-6-11-14-21-26-30zm359 128c-2 10-4 23-3 36l24 7 6-36-27-8zm395 131-13 34 18 2 10-23-16-12zm-492-137-15 67 41 31c3-19 4-39 2-59-7-14-15-26-27-38zm274 91c3 7 8 12 14 16-2-6-7-12-14-16zm-399-91-19 40-1 30c2 19 11 33 30 42l10-8 17-48 2-7-4-1c3-11 3-23 3-37l-38-11zm-158-31c-4 8-8 16-11 27l1 79 8 51 8 13 33 3 14-11 11-94 8-28-32-9-41-31zm347 155c0 14 8 24 22 29 0-13-7-23-22-29zm-113 121-10 9-1 33c0 10 4 19 11 27l23-43c-6-9-14-18-23-25zm-252-21c-2 12-2 24 1 38l23 14h11l7-40-42-12zm239 108-23 30 6 17c8-9 15-19 21-32 0-6-1-11-3-16zm-228-37-2 22c12 3 26 4 40 4-9-12-22-20-38-26zm248 118c-1 8 2 16 8 25 1-9-2-17-8-25zm-8 39c-4 8-8 17-11 27l26 27 13-46-28-8zm-98-2c-1 8 1 15 6 21 1-7-1-14-6-21zm-200 10-41 37c4 15 11 29 18 43l29 5 5-33c-1-17-5-35-12-52zm-84 43-13 19 3 5h12l12-19-14-4zm256 75c-9 4-16 11-21 20l19 2c7-3 13-9 20-17l-17-5zm22 71-56-2-42 18-35 31-10 23 121-25c15 0 31-3 48-9l8-28-32-9zm-198-50c-19 0-35 8-48 23l-14 22 34 14c16-4 31-10 48-20 2-16-5-29-19-39zm-97 35-5 18c9-1 18-4 26-12l-21-6zm308 90c-18 3-37 10-55 22 7 20 20 37 39 49-16 15-37 21-62 20-7 12-13 25-19 40l30 2 33 6c-4 15-16 24-33 24-17-8-34-19-48-33l-50 4c3-5 9-10 15-14l20-1c1-16-3-30-11-45l18-36-15-12-41-16-2 33c2 2 4 5 5 9l-10 20c-13 0-28-2-44-6 6-18 16-36 30-55-23-7-48-10-76-11l-133 17h-15l-8 54-16 33-11 38 3 1c5 19 16 31 32 36l46-1 5 24 145 65 38 26-2-19c-2-11-3-22-1-35l46 10c8 19 24 34 44 47l48 18-10 35 2 19c9-11 18-23 25-38l3-25 26-12 1-18c1-23 5-49 10-76 10-5 21-9 33-9l-4-13c-24-9-34-26-31-50l32-74c6-25-4-42-31-51zm-328 74 56 16v57l-43-9-52-42c8-13 21-20 40-22zm122 51 32 9-1 19c-4 14-12 27-22 38-11-5-18-15-19-28l1-30 10-9zm-119 33 39 11-10 23c-16-5-26-17-28-35zm6 115-4 14 16 9 8-1 7 2c-5-11-15-19-28-23zm2364-1971 714 210c16 7 34 13 55 19l219 68 10 7c5 13 9 26 11 41l-12 109-113 325c-6 14-16 26-32 33l-332-87 22-80 26 1 1 23 16 9 5-3v-26c-9-11-20-21-33-29l-29 37-24 46c-13 8-29 10-47 5l-160-51-9-7c-16-7-34-13-55-19l-57-14c-15 1-26 9-33 24l-7 54c-6 12-15 21-27 30l-42 14-16 29c1 4 4 8 9 10 14-4 29-6 47-5l-11 53-26 41c-16-7-34-14-55-20-13 6-26 10-42 14-15-2-27 5-36 20l13 8 89 7 19 40 2 49-17 59 257 57 6 6c15 7 30 16 45 28 9 11 17 23 24 37l-6 36-11 12-22 50c-2 15-1 31 3 46 13 2 24-3 31-17l18-93 16-3 45-13 52 4 44-6 46 10 9 7 33 32c13 7 24 18 32 32l-95 353c-7 16-13 34-19 55l-9 32-20 5c-15 3-31 5-47 6l-52-4-60-18-51-23-32-32 21-50c5-15 14-29 27-41l54-112-32-9-1 4c-7 16-13 34-19 55l-19 54c-11 8-25 14-39 19-9 13-16 27-23 42l-5 44h-12l-297-87c-15-4-31-5-48-3l-45 175-45-2-19 25 9 10 44 17-33 118 1 12-38 109-24 43 14 7 36 4 217 52 9 7 49 14 6 6c15 7 23 19 24 37l-28 116c-4 13-4 25-3 37l52-162 2-7 55 8 45 13 10 7 155 42 11-1 41 4-4 14 38 11-137 574-1330-390 7-54 379-1359c5-14 12-27 23-39 5 13 13 26 23 37l23-42-50-11 54-195c10 5 19 13 28 23l-8 54-6 21c8-3 16-8 24-16l11-53c1-14 0-30-3-46-13 1-26 4-39 7 0-17 2-37 8-57h15l33 17c6 13 10 27 15 42l21 21 11-12 24-46c-5-12-9-27-10-44l27-109-4-1c-10 9-21 20-32 32l-10 92-7 13-41-4 4-14c3-12-2-22-15-28-6-8-9-18-11-29l16-59 22-50 7-54 79-283 6-9c11-3 23-5 36-5l2 61c-1 16 1 31 6 47 13-1 25-7 38-15l-10-32 3-37 7-13c6-16 18-25 38-27 13 9 20 22 19 40l-12 42 8 10c15-3 25-13 31-29l1-45 21-50c13-3 26-5 39-4l-4 14 4 95 16 24c-5 0-11 2-17 6l15 12 21-77-2-8 3-52-2-31 18 2 19-25c0-5-3-10-8-14-10-9-17-22-19-40l3-52c13-6 29-9 48-9l51 8zm-299-81 178 56-3 37-19 54 2 8c1 14 2 29 2 46l-42-12 17-48c3-19 2-39-2-61l-10-18-17 33-18 119-13 4-144 29 69-247zm1177 372-1 15 16-15-10-7-5 6zm-475-132 10 7 3-11-4-1-9 5zm-699-197-3 40 15 1 9-31-21-10zm1159 381-24 98 14 4 5-3 14-49 6-9 9-32-23-11zm-343-74c2 12 7 22 18 32 3-14-3-25-18-32zm-824-238-18 36v42l29 5 17-33v-15l-28-35zm873 317v15l15 1 13-22-17-5-11 12zm-280-56-20 32-5 18 8-2 24-46-7-2zm102 30-17 36 14 4c3-12 4-26 3-40zm260 87-79 37c-13 5-26 10-39 19 0 6 2 11 8 14l15-11 40 19 25 18c4-1 7-3 10-8l34-81-13-8zm178 79-10 23 25 4 9-20-24-7zm-631-155c-2 12-2 24 1 38l37 15c-5-10-13-19-23-26-3-8-8-17-15-27zm-388-19c-1 9 2 17 8 25 1-9-1-17-8-25zm-54-12-16 44-40 305-9 32c5-1 9-3 14-8 6-15 13-31 21-47 8-11 16-26 23-42l-16-39 2-48 28-158c-1-12-3-25-8-40zm109 32c-2 15-4 31-2 48l11 3 13-45-21-6zm690 214c-17 7-29 19-37 38l38 11c1-16 1-32-1-49zm-133-13-11 12 11 3v-15zm-621-152-22 69 2 238-11 95-33-3c-2 17-3 34-3 52l11 3c18-3 31-14 40-33l14-64-4-1 11-69 14-37 3-25 6-183c2-19-7-34-26-42zm973 300-1 19 19-2-18-17zm-333-94-38 12-7 13 6 6h15c12 2 24-1 36-8 3-11-1-18-12-23zm-797-211c-10 21-20 45-27 71l-8 43 28 4c4-1 7-4 10-9l7-54c5-19 1-38-11-56zm672 197-15 14 17 5c2-6 1-13-2-19zm-383-22-10 9c0 8 1 16 5 24l10-23c0-3-1-6-5-9zm-257 174-42 123-20 126c-1 19-5 40-10 65l-8 43 13 8 42 12 5 20-29 131c-4 16-5 35-1 56l13 49 4 54-16 123c-3 17-4 37-5 59 10-5 20-13 29-22l22-65 19-123 1-56-12 16c-8-6-14-14-20-25-1-16-1-36 1-60l1-56c3-17 5-36 5-59l15-124c3-17 4-37 5-59l5-17c-12 2-23 6-34 13l29-131c3-16 4-35 5-59 5-19-1-33-18-43zm205 91-4 29h26c-5-10-12-20-22-29zm-57 43c0 7 3 13 10 18-2-6-5-12-10-18zm62 22-23 27 8 10 23-1 25-19-33-17zm-98 28-16 44-35 220c-3 13-4 26-4 40 12 3 20-1 26-11l9-46 12-166 16-44 29-22-37-15zm169 84-11 15c6-4 9-8 11-15zm-61 5c1 9 4 17 13 22-1-9-5-16-13-22zm-352-96c-8 6-14 14-19 25-1 5 1 9 4 12l18-25c0-5-1-9-4-12zm768 233c-21 0-43 5-65 14l-33 10-9 20 10 7c20-1 41-5 64-11 16-7 28-20 34-39zm-649-172c2 18 2 39 1 64-2 18-6 37-12 57l-14-4c-8-18-10-39-5-62 7-17 18-35 31-55zm-197-43-12 19 15 1c1-7 0-13-2-20zm1027 324-26 12c0 6 2 10 7 13 8-2 15-6 23-12l6-10-10-3zm105 46c-11 6-20 15-27 26-3 12-5 26-3 40l19-40 12-4 5-17-6-6zm-593-155-17 48c2 4 6 8 12 11l15-52-10-7zm431 179c1 8 6 15 14 20-1-7-6-14-14-20zm-949-234-16 29 4 13c5 11 12 23 20 36l17-48c-6-11-15-22-26-31zm489 147c-3 12-3 23 2 35l12-30-14-4zm371 124c-11 7-21 17-31 28-2 14-1 28 4 43l25-35 11-26c-1-4-4-7-9-10zm59 21-13 19 32 9c0-12-6-21-19-28zm-820-237-19 40-79-1c-12-1-24-1-38 0-11-1-24 1-38 4l-30 14-21 32-6 21 16-3c0-8 2-18 4-29l12-4 41 4 74-8 44 5c9-2 18-7 27-15l23-30c0-11-3-21-11-29zm-149-37-26 12 2 19c9-8 17-18 24-31zm478 171-10 23c5 1 9-1 13-4 1-5 1-12-2-19zm50 37-7 24 18 2c-1-9-5-18-12-26zm-273-65c-4 15-5 31-2 48 4-15 5-31 2-48zm805 247 1 12 3-11-4-1zm-720-200-7 24h15l9-20-17-5zm714 210-39 19c-10 3-18 9-25 19 14 0 28-2 44-6 8-8 14-19 20-32zm-934-248c-11 6-21 14-30 25l-15 97-5 179c-3 14 1 27 12 38l7-10 17-127 17-48 22-39-12-38-3-42c0-12-3-24-9-37zm-85-6-57-1c-9 1-18 3-28 6l21 6 50 26 19-25c0-5-1-9-4-13zm813 246c-3 13 2 24 14 31 3-14-1-24-14-31zm260 114c-6 3-10 8-12 15 6-4 10-9 12-15zm-382-71-13 34 24 7c3-14 0-27-11-41zm-718-207-9 32 22 3 11-27-24-7zm500 162-1 19 19-14-17-5zm-555-141-11 27c1 4 4 8 8 10 3-11 4-23 3-37zm49 83c-2 8-2 17 0 26l6-21-6-6zm-66-8-10 47 13-46-3-1zm244 197-20 43-15 52-5 47c3 12 9 22 18 32l16-44 15-52 5-44c-2-12-7-23-13-34zm-220-42-14 49 17-6 20-32-23-11zm140 53-33 50-38 42c-10 14-20 32-29 52 11 11 25 19 42 24l35 10 9-32c-10-14-17-31-19-51l28-60 24-30-18-5zm-61 5-16 29 21 6c0-11-2-23-5-35zm-97 51c-7 9-13 20-17 32-1 11 3 23 10 33l18-36c0-10-4-20-11-29zm223 152c-11 23-21 48-30 78l-5 33c9-8 16-16 23-27 9-15 27-27 52-37l8-28-48-18zm-153-7c-14 9-28 20-40 33l16 50h26l10-35c2-17-2-33-13-49zm43 88c-3 16 3 26 18 32l7-24-24-7zm-136-14-5 18 21 6c-3-9-8-17-16-24zm59 48-19 55-18 119v57c4 15 10 29 18 43l-16 59-5 33h-26l-10 24 6 5h12c14-5 30-11 47-20l23-54 13-60c-4-15-12-29-26-42l14-116v-53c0-16-4-31-9-48zm147 43c-10 19-19 41-27 68l-34 148c-5 19 0 30 17 35 5-17 14-37 24-61l16-29 6-36-1-65c3-19 3-40-2-61zm-79 37-21 50c-3 14-2 30 2 46l11-53 12-30c0-5-1-9-4-12zm921 281-17 48h12l16-45-11-3zm-553-135-13 45 12-16c9-6 18-13 25-22l-24-7zm437 143-22-3-11 27c1 4 4 7 9 10 10-9 18-21 24-34zm-511-120c2 5 7 9 12 11l-12-11zm414 132-11 12 15 1-4-13zm128 57-7 24 16-15c-1-3-4-6-9-10zm-639-180h-15c0 6 3 12 10 18l15-11-10-7zm318 93c-12 4-24 11-36 20l-13 22 18 2c11-3 23-9 35-16l14-22-18-5zm-823-226c-3 15 3 27 17 35l40 8 13 8c-9-9-20-17-31-24l-39-26zm657 227c-9 6-16 14-22 23-1 5 0 10 4 13 8-7 17-16 26-26-1-3-4-6-8-10zm484 149-8 28h26l13-19-32-9zm-570-156c-1 19 2 38 11 56l10-23-2-8-1-11-19-13zm292 93-12 30 4 13 11-1 14-22-1-12-16-8zm-381-101-7 24c8-5 15-11 21-20l-14-4zm520 157c0 11 3 20 11 29l7-24-17-5zm-926-249c6 11 15 19 28 24-8-9-17-16-28-24zm251 78-15 41-17 74c-1 4 1 7 5 9l32-74c7-8 17-16 29-22l17-6-17-5-33-17zm727 217c-2 13-1 26 4 39l17-33-21-6zm-327-92c-2 19 4 37 19 55-4-17-11-36-19-55zm-268-45-12 19 31 9 9-20-28-8zm122 65c3 8 9 15 17 20-3-8-8-15-17-20zm452 133v15l34 2-33-17zm-871-161-13 19 4 13 14-22c0-3-1-6-5-9zm234 69c-4 1-8 4-9 8l10 3 3-10-4-1zm763 254-7 24 17 5c-1-10-5-20-11-29zm1009-2267 275 88 20 9-18 21c-4 15-5 31-6 48 3 12 9 24 20 36l54 12 29 31c11 10 17 24 15 42 12 1 24-1 35-4 11-8 22-17 31-29l23-42 10-35 6-6-3-5-108-20c2-8 7-14 13-19l52 4 112 33 41 453-6 48c-8 10-19 20-31 28l-5 18 35 10c11 8 18 20 25 33l7 44-5 33-79-54c-2 5-6 9-11 12l-48-3c10 9 22 17 34 25l89 49c14 4 24 15 29 32l10 184 18 84 7 126-18-5-45-2-18 10 28 8 47 22c8 9 16 20 24 34v94c3 13 8 26 16 39 5 12 12 24 20 36l11 15 335-456 160 51 98 2c12-4 23-9 35-16l-39 4-213-63-10-7 23-42 56-67c9-10 19-19 31-29l31-29 71-122 28-34c10-9 21-19 34-27l41-10c-1-16 0-32 3-49l48-80 59-62c14-3 29-4 46-2l520 160-46 141-7-43c-1-13-7-26-16-39-11 3-23 7-34 13l-23 43-7 24-83-28-42-24c-11-7-25-14-40-19-6 15-14 29-24 43-13-8-24-19-32-33-10-9-21-18-35-25s-23-18-28-35c-1-13-5-25-12-38l-39-11-5 18v15l-78 222 17 9c13 6 22 17 25 34l-15 55-7 51 2 50 11-12 19-108c8-7 15-16 22-27l-15-42-8-40 38-12 54 9 51 19-10 24 7 43-11 27 15 12 38 14h11l48 3c14 0 28-3 44-6l89-8 29 5c-3 5-9 10-16 14l-19 2 1 23-28 18 1 23c-7-2-15-1-23 1l-99-10c-13 3-25 8-39 16l-10 23 2 8 9 10c13 1 26-2 39-7l29-37 85 48c13 6 23 16 29 31l-556 1993-22-3-268-83c-4-4-5-8-4-12l36-73c-6-12-15-22-26-30l-48-3-84 17-37 12 51 7h49l14 4c-2 8-1 17 0 26-1 2-4 3-8 5-13 0-25 4-38 12-16 0-34-2-52-4l-85-21 97-360c7-12 15-24 26-37l44-89c7-10 13-22 18-37l3-52c3-14 4-28 5-44l11-53 36-103 13-45h12l2-37 14 4 48 3 13-7 1-30-7-44-10-18-30 93c-8-4-17-12-24-22l31-112c9-10 17-22 21-35 5-11 13-21 24-31 7-11 13-25 19-40 3-14 5-30 5-47-8-14-10-30-6-47l7-39 7-10c8-9 19-19 31-28l37 3-7 13-16 56c-1 15 0 30 2 46l3 46c1 13 7 23 19 28l34-107 18-40c-5-12-12-24-20-36l3-37c2-3 5-6 10-8l47 22c11 10 16 25 15 42 1 12 5 24 12 38 5 1 9 0 12-4v-26c-3-12-4-26-5-39l21-47c1-14 0-29-3-46v-94l9-32-16-9c-13 8-21 20-26 38l-11 147-48-6c-7-12-11-26-11-41l-1-49-8-40c-6-13-9-28-10-44l11-27-21-6-14 8-1 60-21-6c-13-7-25-15-39-26l-55-32-40-8-10 9c0 8 2 17 8 25l33 17 11-1 37 3-4 14c-10 9-21 19-34 27l-28 30-26 41c-4 13-14 20-29 22-13 2-25 7-38 15 10 7 15 17 18 32l-49 80-87 95c-9 8-20 16-33 24-12 7-25 13-39 18l-40 8h-49l-51-7-53-15-14 22 114 26c4 2 6 6 8 10 10 9 21 17 35 25l7-39 38 11-18 25c-9 9-19 19-31 28l-162-44c6 14 17 23 34 29l112 33-15 41c-10 9-19 20-28 33l-59 62c-4-9-7-20-10-33-3-14-11-24-26-30h-15l-4 82-11 53c-7 13-16 27-26 41-14 1-29 1-45-2l-52-4c-11 1-23 4-33 10l54 12 41 19-9 32-188-59-9-7-3-46c7-9 18-15 31-17-2-10-5-19-11-29-11-8-22-17-33-28l2-48-3-31 13-4 2-48c-13-6-23-16-29-31l-7-44c0-13-3-28-7-43 10-5 21-10 34-13-2-14-7-28-15-42-6-11-11-22-17-35l-15-42-43-401 40 4 99 41 39 26 16 9 8-2 3-22c-10-9-21-17-35-25l-174-93-56-16c-14 6-23 17-28 34l-116 441c-1 15 0 30 3 46l-3 49-52-4-165-45-41-4 16 38c15 1 29-1 44-6 13 7 26 16 38 27l63 60-12-11 15-26c13-6 29-6 46-1 12 9 22 20 28 35l-2 34h-15l-16 2c-1 9 0 18 4 28 8 12 10 26 7 44l-16 56c-11 6-22 16-31 28 2 13 6 26 11 41l-121 421-19 1-36 20-44-17c-14-3-27 2-38 15l-37-3v-15c-8 9-14 22-18 36l-5 18-393-139 20-73 36-103 2 31-2 49c7 10 16 20 30 28l31-29 26-41 56 16 90 45c10-5 18-13 25-23l11-12 22 3 5 9c-3 14 1 28 11 41l54 12v109c8-4 16-10 23-16 10-7 22-12 35-16 9-10 18-23 26-37 0-14-2-28-7-43l-24-34-23-15c6-2 12-6 18-10l41-10 17-21-41-42-42 3-47-22c-12-3-24-4-37-3-4-2-7-6-9-10l29-33c-3-13-6-27-7-44-5-13-13-24-24-34l-34-14-61 1c-12 2-25 8-38 15l-95-1-24-11 40-7c-1-7-2-14-6-21 9-8 21-16 33-24 1-8 1-17-1-26 6 0 12 0 20-2l99 10 43-6 10-8 1-30c-7-4-17-8-27-12l-8 2-11-3-1 4c-9 10-17 23-25 38l-16 3-72-40-42-12 550-1973c5-15 12-31 21-47zm527 185c-3 12-1 25 5 39 1-12-1-25-5-39zm-491-140c-9 10-16 24-22 38l4 42-10 9-5 33c7 9 16 16 28 23 10-7 20-17 27-29l9-47 1-45c-9-10-20-18-31-24zm316 115c10 5 16 11 21 21l-19 2-1-23zm44 62 21 6c-8 6-16 9-26 11l5-17zm-218-34-23 27 37 14c11-4 19-13 23-27l-38-15zm365 118-9 17 7 2 1-4 1-15zm1321 395c-1 5 1 9 4 13 7 1 15 0 23-1l-27-12zm-1490-399-16 2 11 45 14 19 43 9-31-24c-7-14-14-31-20-51zm-172-36-16 14h23l-7-14zm-183-50-20 6-2 33 18 5c9-9 17-19 23-30l-19-13zm278 130c0 14 7 25 20 36 3 12 9 22 18 32-2-13-5-27-11-41-3-13-12-22-27-27zm1561 458 38 11-8 16-33-6 3-22zm-390-96-2 22 22 3c0-12-7-21-20-25zm-1072-311c3 9 9 15 17 20-4-8-9-15-17-20zm1375 407 31 9-6 36c-2 4-6 6-9 8l-30-1 15-52zm-1546-446c-1 15-1 30 2 46l5 24-20 2c-11 5-21 13-30 25l63 49 162 44c9-5 14-12 18-21l-56-16-74-33-13 4c-9 3-20 5-31 6l5-17 17-48c3-15 4-30 1-45l-48-18zm1394 421 17 5-12 30c-4-11-6-23-5-35zm228 67c18 5 35 14 53 26 9 10 14 23 12 38l-14-4-56-2c-1-18 1-37 5-58zm-1692-467c-1 7 1 14 6 21 1-8-1-15-6-21zm311 121 1 12 7-10-7-2zm1200 368-14 22 17 9 8-2 7 2c3 0 6-1 9-5l1-18-28-8zm111 48 28 8-6 21c-6 10-14 19-23 27-6-7-11-17-15-27 3-11 8-21 15-30zm-312-76-20 31 18 2 19-28-17-5zm-981-232-18 25 24 11 8-1c-2-12-6-23-14-34zm63 19c-2 17 5 30 19 40l9-32-28-8zm1089 331c3 8 9 15 17 20-4-8-9-14-17-20zm-1422-414-3 25 29 5 9-20-35-10zm1512 459-65 19c-10 3-21 6-33 9l-13 19 9 10 38-1 32-5c11-3 20-8 30-14l8-28c0-4-1-7-5-9zm-216-52c1 10 6 17 16 23-2-10-8-17-16-23zm-1048-274-10 23 25 4c2-12-3-21-15-27zm972 289-22 91c-1 5 0 9 4 12l15-55c4-15 5-31 2-48zm75 29-14 26 8 10 15-26c-1-4-4-8-9-10zm383 150c-14 2-28 7-42 14l-33 24-52-19c0 14 2 29 7 43 12 2 24 3 37 3l38-15c11-4 23-11 36-19l17-21c-1-4-4-8-8-10zm-1475-414-9 20 12 11 10 7 29 5c1-9 0-18-4-28l-37-15zm-144-16-9 20 40 8c-8-10-18-19-30-28zm1369 402-16 18 14 4 11-12-9-10zm-1275-359-8 43 17-6 9-8-1-23-18-5zm1107 362c-2 16 4 26 18 32 4-14-2-24-18-32zm-997-281-51-8c-11-2-23 0-35 5 11 5 25 11 41 16l48 18 27 27c11-1 24-5 37-12-4-11-11-21-22-29l-45-17zm916 276c-7 16-13 34-19 55-1 15 1 30 6 47l16-44-1-11c2-15 1-30-2-46zm147 43-20 44v26l19-2c7-10 13-22 18-37-3-11-9-22-18-32zm-1499-436-11 27 30 1 11-12-2-8-28-8zm167 53-14 8 20 13c1-7-1-14-6-20zm-113-18-2 22 6 6 22 3c-2-15-11-24-26-30zm167 79 5 39 27-3c-5-16-15-28-32-36zm1586 466-2 22 16-3c-3-7-7-14-13-19zm-1360-392c-9 12-16 26-23 42l-1 19 28 4 4-25c-1-14-4-27-8-40zm-452-103c10 13 24 21 42 27-12-10-26-19-42-27zm1428 446c0 17 5 35 12 53l12 11c12 2 24 1 38 0l13-22-17-20-59-21zm-137-25c0 12 6 20 20 24 0-12-7-21-20-24zm-1353-390c3 7 8 12 14 16 4-1 8-4 10-9l-24-7zm475 159-56 10c-4 14-6 31-6 51-12 13-22 30-30 51l3 57c12-5 23-15 31-28 9-17 17-38 24-61 14-10 26-23 37-38l18-36-21-6zm928 272-17 48-16 97c6 9 14 17 24 22l20-43 15-52 1-45c-7-10-16-19-26-26zm-1361-389-18-2-2 22 32 6c8-4 17-8 27-15l-39-11zm1683 498c-7 3-12 8-16 14 8 4 16 8 27 12l12-19-24-7zm-446-127-59-3c-16-1-27 4-35 16l58 6c13-3 25-10 36-20zm67 46-24 46c-3 12-1 25 4 39 9-12 16-26 23-42 2-13 1-28-4-42zm-1058-307-25-4-13 45c-3 19-2 41 1 64l22 3 9-47c3-19 6-39 6-62zm1436 432-8 43 36 7c1-21-9-38-28-50zm-582-167c-14-1-29 1-43 6l-40 8c-12 2-26 5-40 11l-23 12c1 4 4 8 9 10l121-25c9-4 14-11 17-21zm-1149-319-15 30 4 13 47 21c2-11 2-24-1-37-10-10-21-18-35-26zm76 26-11 27c-1 5 1 9 4 13l44 5c4-1 8-4 10-9 0-6-2-13-5-20l-41-16zm1438 422 13 38c5 10 13 19 22 29l5-47-40-20zm-1328-344-3 25 15 1c-1-10-5-19-12-26zm923 274-10 9-2 33 13 11 7-1 20-44-28-8zm-1087-296-8 16 10 3c1-7 1-13-2-19zm553 162-60-3c-11 1-22 6-30 14l82 20 21-23-13-8zm677 206c-9 6-16 14-22 24l31 9c6-2 11-5 15-11-7-9-14-16-24-23zm-913-256-7 24 18 2c0-10-5-18-12-26zm1377 423c-12 7-21 18-28 34l-7 54c-4 16-1 30 10 44 11 10 26 20 42 27l19-1-6-127c-7-12-16-23-29-31zm-1447-421-23 42c5 7 13 12 23 14l24-34c-6-9-14-16-24-23zm830 270c-9 11-18 23-26 37 7 11 17 20 30 28 8-11 16-24 22-39-7-10-16-19-26-26zm-1098-300-7 10-5 33 4 80c0 9 4 19 11 29l15-41c4-14 5-29 4-44-6-11-10-22-13-34l8-28-17-5zm322 95-5 44c1 11 4 24 9 36 11-1 21-6 30-14 13-2 28-2 41 1l40 19c12 2 26 2 42 1l73 36 44 5c-8-8-17-15-28-23l-112-59-134-47zm632 189 8 14 34 2-41-16zm636 202-15 55 1 12-9 32c10 2 21 2 34 2l17-48-1-12c3-20-5-34-27-41zm-576-147c1 10 4 20 11 30 0-10-4-20-11-30zm-823-211c0 5 2 11 7 17 2-7 0-12-7-17zm713 213c-7 11-14 24-22 39 0 5 3 9 7 13l26 1c10-9 18-19 24-31-11-9-23-16-36-22zm-786-208c-2 9 0 18 3 27 1-9 0-18-3-27zm974 297-80 3-24 31c-2 9 0 16 6 20l35-16c9-6 21-9 32-9l42 1c-2-10-5-20-11-29zm598 202-11 53c8 13 21 21 38 27l3-52c-8-10-18-19-30-28zm-769-203c-1 7 1 14 5 21 2-8 0-15-5-21zm-934-252-10 35 13-4 14-26-17-5zm-211-58-10 35 22 3 5-33-17-5zm1015 336c-1 7-1 15 1 23l23-1-24-22zm-741-195 2 31 26 4 7-24-35-10zm104 34-5 17 17-6-12-11zm-190-41c1 8 4 15 9 22-1-8-4-15-9-22zm1715 519c-6 2-11 5-14 11-1 9 1 19 7 28l16-29c-1-4-4-8-9-10zm-1939-554-3 52c7 11 18 20 30 28 4-17 7-35 7-54l-34-26zm754 229c-1 7 1 14 6 20 1-7-1-14-6-20zm966 287c-6 3-11 8-16 14l14 16 14-22-13-8zm-1325-381c0 10 2 21 6 31l16-2 9-20-32-9zm251 77-5 18c7-2 15-7 22-13l-17-5zm-436-94-2 48 2 20 23-1 16-29-9-10c-7-10-17-19-30-27zm1501 444c-10 8-18 18-24 31l17 5c8-10 15-20 21-32l-14-4zm-544-156c-2 10 0 23 6 36 7 6 16 12 26 15l11-27-5-9-38-15zm-1038-282-21 9-11 26 2 8c-4 18 1 36 15 53l18 5 19-96-21-6zm277 93c0 9 4 18 12 26l8-16-20-10zm-434-116-3 52 8 93 8 13 26 1c5-3 8-7 11-12l13-86 9-32-20-10-52-19zm766 225c-11 1-20 4-29 10l-5 18 25 4c12 0 22-3 33-9-7-9-14-16-24-23zm280 98c-8 10-15 22-21 35 1 14 0 27-4 41 10 8 22 16 35 21 9-6 17-14 26-23l39-7c-1-8-4-15-9-21l-27-27c-12-7-25-12-40-19zm676 198c-3 15 3 29 19 39l-12 42 19 2 5-47c-8-14-18-26-31-36zm-83-2c-4 14-6 30-6 47l10-35c0-5-1-9-4-12zm86 153c-1 7 1 14 5 20 1-7-1-14-5-20zm-746-189c-11-1-21 0-27 3 10 2 20 2 27-3zm-796-230c6 8 15 14 25 18l-25-18zm1527 459c0 14 3 28 7 44 7 9 17 15 29 19l12-30-4-13-43-20zm-64-15-22-3-5 33 3 16 33 6 31-28c-11-9-24-17-39-23zm-1656-456c-5 22 3 39 24 49l14-38-38-11zm784 230 2 19 10 7 104 20c-13-9-27-17-43-24l-73-22zm239 119-12 30-7 10 11 3 16-29c0-6-3-11-8-14zm-1015-283-7 24 35-1-28-23zm1693 501-39 3c5 7 13 13 22 18l41 4c-5-11-13-20-23-25zm-978-268c0 5 3 9 8 10l-8-10zm820 252c-3 14-5 29-5 44l23-1c8-7 14-16 19-29l-37-15zm186 66c5 5 11 10 19 13l-19-13zm-87 12-5 17 51 23c-9-17-25-31-46-40zm-114-11-24 30 14 4 18-25c-1-4-4-7-8-10zm-1274-359c3 7 7 12 14 16-3-7-8-12-14-16zm-394-108v15c7-1 15-3 22-8l-22-6zm1792 567 1 23 23 11 8-2 6-21-38-11zm-123-32-26 26c-7 9-12 18-16 29 6 9 8 21 10 33l5 118-9 46c-5 9-12 17-22 24l-23 27-30 66 1 12c-1 11-1 24 1 38l10 33 22 29c-2 10-1 21 2 31l25 4 1-15c-9-9-16-19-22-29l-1-38c9-6 20-11 34-13l11-27-5-9c-7-8-10-18-11-29l41 1c12-4 19-13 23-27l-19-28c-6-10-10-21-13-34l-1-38 14-49 18-36-22-29 4-41 14-49c-2-10-6-19-15-27zm-1303-379 2 19 36 7c-12-9-24-17-39-26zm664 213 12 27 29 5c-12-12-25-22-41-31zm-964-264-42 14-36 20c-10 7-18 17-23 30 10 2 21 2 34 2l37-23 11-12 55 20v-26c-7-12-19-20-34-25zm1665 507-6 21c8-3 15-8 23-16l-17-5zm-1489-429-27 3c1 7 4 15 9 22l24-5c1-8-1-14-5-20zm87 26-17 18 14 4c3 0 6-1 9-5 0-5-3-11-7-17zm57 66-48 9c-10 7-17 16-23 27l47-6c10-9 17-19 23-30zm-142-19-43 2-33 10c-8 7-17 16-26 26l-12 16-3 10 8-1 67-22 35-4c4-8 8-17 11-27 1-4-1-7-5-9zm-36 87c5 11 13 22 21 33l45 13c-7-9-16-18-26-26l-40-20zm-132 11 29 19c-4 11-11 21-21 32l-29-5 21-47zm104 60-5 33 30 1 9-20-34-14zm76 26v15l36 7c-11-9-23-16-36-22zm-258-27c14 11 21 26 22 44l-1 18-29-5-10-7c-13-9-22-23-26-41 13-5 28-8 44-10zm1706 509c-1 7 1 14 5 20 1-7-1-14-5-20zm-1599-458-11 53-31-13 8-43 33 3zm-118 29c7 6 12 15 15 28l-38-11c6-7 14-12 23-16zm1848 569-8 43 34 2 7-10v-26l-32-9zm-177-18c0 5 3 9 9 10l9-5-17-5zm178 82c-10 7-20 17-28 30l-15 97c6 9 15 17 28 23 10-6 19-15 26-26l1-45 10-50-22-29zm-183-35-10 9 4 28 44 5 15-14c0-4-3-7-8-10l-44-17zm-1686-487 21 10 8-2-28-8zm255 188 40 19 12 11c-2 6-6 12-12 16l-40-5v-41zm2633-1932 72 21 9 6 283 87c6 3 10 7 13 12l-15 55 3 43 100 18-8 28c16 16 34 31 55 46l-58 21-51 34c-16 11-37 18-63 19h-26l11 71-37 1-23 27 150 97 14 61-5 55-8 9-15 37-33-14c-19-13-32-31-38-53l1-18c-17-2-34-2-52 0 9 15 23 31 43 47 11 17 26 33 45 47 9 16 22 34 37 52l-21 20-47-18 11 19 1 12-12 26 27 16 12 11c-8 12-20 22-35 31-8-1-15 0-21 2 8 11 19 21 32 32 3 2 6 5 7 10-7 15-14 33-20 55l-54-12-37 19 6 17c10 15 23 32 39 49 14 16 22 35 25 57l-14 49-6 5-8 9c-17 4-29 13-38 27 4 10 7 21 6 31l-48-14-48-33-4 14 28 12 2 31-12 4c-14 10-26 23-37 38l33 55c-23 0-42 8-58 21 9 17 13 35 10 56-8 3-15 7-19 13l6 89-8 9c-24-11-40-27-49-49-4-17-13-35-27-53l-17 62 28 50 31 1-40 90 19 6c21-1 43-4 66-11 15-10 35-19 58-24l2 15-16 37-7 9c-10 9-18 19-24 31 0 6 3 11 11 18l1 34-44-9 32 32-11 38-35-3c-10 7-17 16-23 27l20 17c14 8 21 19 22 34l-38-15-67-39-30-5c3 11 9 22 16 35 6 20 7 42 3 65l-14 49 18 9 47 17 21 3 7 13-25 68c-6 19-17 39-32 59l-22 24 20 36-26 37-18 48c-5 3-11 4-17 3-16-13-30-29-44-47-2-20-2-43 3-67l-4-24-50-7-28 7c2 10 7 19 13 27l40 23-16 22c-28-2-48 4-62 20l39 49-50-7c2-8-1-16-9-25l-54 7 34-47c-3-5-9-9-17-13l13-45-17-16c10-14 27-22 50-27 22-4 45-7 71-10l32-2 4-37-23-11-11 1-10-3-21 16-70 10c-13 16-24 32-35 50l-27 4-3 70-36-3 15-72c-23-4-50-7-80-8l-63 16-125-14c5-7 14-14 26-19l23-27c11-3 22-6 35-12l-11-15c23-5 51-4 82 5 17 3 29-2 35-16l-79-15-9-25-66-27 562-2015zm64 49c-13 6-25 15-34 28v94c4 11 13 21 28 31l33-24 8-50-2-46c-6-11-16-22-33-32zm179 158c-9 8-14 17-18 29l14 8 44 9 20-13-7-13-52-19zm60 82c-15 2-28 6-40 15l30 5c14-1 27-5 39-11l-29-8zm-261-73-18 48 30 5 14-34-26-19zm413 162 44 13c-3 8-8 14-16 22l-39-8 12-27zm-230 23c-1 7 2 15 10 21 1-7-2-15-10-21zm211 65c14 9 26 20 36 34l-42-12 6-21zm-70 6 12 30-23-7 11-23zm59 70 33 10-5 18-33-10 5-18zm-300-46c4 7 11 13 21 17l-21-17zm181 64 9 41c8 10 20 17 35 22l13-27-12-11-45-25zm-198 127-18 10c8 0 15-3 18-10zm130 57 30 24c-7-9-17-17-30-24zm-135-2-2 27 54 12 2-23-54-16zm3 84 4 24 23 10h10c-5-14-18-25-37-34zm-61 32-14 11 33 10c-3-7-10-14-19-21zm89 53-60-10c-5 1-9 4-13 8 0 5 4 11 10 18l51 4 19-10c0-3-3-6-8-9zm-106 44c-5 7-9 16-13 26l-3 10 5 2 33 29 18 9-16 19c2 10 6 22 12 33l19-32 1-41c-14-20-33-39-58-54zm133 43c-15 2-31 8-46 17 13 10 27 20 44 28 18 3 31-2 40-15-6-15-18-24-38-30zm79 129c-3 19 11 33 40 42-4-17-17-31-40-42zm-180-12-23 46 12 90c-1 12 4 25 15 38l10-54 16-22-7-14c-13-13-17-28-14-45l10-35-19-6zm-16 188-13 45 31 1 14-33-32-13zm-271-72-2 44 16-3 10-16-4-5 4-14-23-7zm250 149-4 29c7 6 14 11 22 14l12-24-31-20zm-274-46c-5 2-9 6-13 11l1 34c6 13 15 26 31 39l16-37-2-12c-9-12-19-24-32-36zm140 131-23 65c-1 18 10 33 34 43l27-98-38-11zm-179-30 3 99 18 69 32-2 16-22-2-12 22-95-89-38zm268 271c-10 11-16 23-20 36 3 13 9 28 19 43l34-65-33-14zm-268-30 2 50 35 6 11-39-47-18zm253 120c-7 6-12 14-17 25 0 5 2 9 7 13l13-26 3-10-5-2zm-241-48-7 24 40 4c-9-10-20-20-33-28zm-179 80c7 8 16 14 26 19-7-7-16-14-26-19zm118 80-37 42c5 14 13 27 25 41l25 4v-37l-13-49zm-68 40c-19 3-39 6-61 12l-24 31c0 5 3 9 7 13 20-2 37-8 52-19 11-9 20-22 27-37zm252 82-20-2c-1 10 1 21 7 32l25-15c-1-5-5-10-12-14zm-204 8-29 44c9 10 21 19 34 26 17-7 29-19 36-35-11-12-25-23-42-35zm285 302 38 15 1 12-6 5-34-6 1-26zm-354-92c24 10 35 26 33 47l-5 18-34-7-7-13-48-14-3-27 64-4zm121 50-7 62-20-2-4-5c-2-19-2-37 1-56 9 2 20 3 31 1zm-127 23 24 26c-5 6-11 10-19 13-9-7-17-17-23-29l18-10zm-205-26c5 13 9 27 9 40l-4 89c16 5 33 6 51 3l50-68c4-3 9-3 16-3l27 15 157 72c7-2 12-7 14-14 0-8 0-18 3-29l25 3c17 7 26 19 27 34 5 12 13 24 27 34 13 9 24 20 32 32l19 82c8 9 19 19 33 28 15 8 30 19 44 31-19 0-37-1-56-5l-535-157 27-98 32-92zm199 145c5 8 12 14 21 18l-21-18zm1313-2239 316 101c10 8 13 19 10 33l5 39c4 10 8 20 14 31l19 29 45 13c10 7 19 16 27 27l23 25c10 6 15 15 15 27l-15 41-25 23c-4 14-10 27-19 40-10 0-19 3-29 10l13 34 23 25c-10 5-18 13-25 23-2 10-1 20 2 31 11 6 21 14 31 24l19 29 64 41 46 55 10 33 6 36-3 63-16-12-33-17c3 11 9 20 19 28 11 6 20 15 27 27 7 9 14 18 23 26 6 9 9 20 10 33-12 1-24 0-37-4l-17-5 10 18 31 9-4 14c0 11 2 22 6 36l31 24v26l-7 10c-4 0-7 1-9 5l7 17 19 28 13 34 1 38-37-3c-7 8-13 17-19 28 5 10 13 20 22 29l29 20 22 29c4 10 8 20 10 33l6 20-44-20-6 9c8 9 17 16 28 24l23 25c-1 13-3 28-5 44 1 10 5 20 11 30-3 10-9 17-19 25-8 1-15 5-22 12l-8 43c-3 11-3 24 1 37l22 29 12 11c-2 5-6 11-11 15l-13 4-3 25 19 28c4 13 5 25 4 39l2 35c5 9 11 20 18 32l10 33c-4 4-9 8-18 10-9-6-13-15-15-27l-14-31c-6-9-14-18-23-25-5 5-10 11-13 19l10 33 27 27c4 10 9 20 14 31l23 25v42c-1 11-1 23 1 37 8 9 17 17 28 24l43-59 11-27 3-10-4-1c-6-9-10-18-14-31l16-44 52-185 15-41 39-140 42-127 29-22c2-12 1-23-1-35-4-12-5-25-5-39l232-833 87 15 505 144c2 13 1 27 0 41l-398 1429-14 38-22-29-12-11-11 12c-3 12-2 25 1 38l31-2c4 13 5 26 4 39l-69 247-63-30 4-41-9-7-29-5-22 36c3 9 8 18 15 27l27 11h12l28 8-6 21c2 8 7 12 15 15 7-3 14-5 20-5l-135 484c-4 12-10 22-20 32l-28-8c7-26 10-47 9-62l-4-39c0-3-2-6-5-9l-23 1c-9 4-19 10-28 18l10 33v41l-18 36c-13 3-25 5-39 4-6-10-8-22-5-36s5-29 4-44c-6-8-14-15-24-23-8 6-17 14-25 23l-10 23 13 8v26h-15c-8-8-14-16-19-28-3-11-10-21-18-32 1-12 1-24-1-38l-30-16-22 27-18 37 6 35 23 67 6 36 28 20c9 8 15 19 18 32l10 33 32 21c12 0 22-5 30-14l3-78 4-29c5 0 9-1 13-4l126-31-69 247-463-132c-5-10-9-22-13-34l-1-38 25-117c3-3 8-4 13-4l126 22 4-41-45-54c-7-4-16-8-27-12l-8 1-72-40-4-24c3-4 5-7 9-8l30 1 10 7c9 6 19 14 28 23l32 21 21-32c-6-8-15-15-24-22l-59-86c-13-3-26-4-41-4-8 9-18 14-31 17l-68-1-10-7c7-8 12-18 16-29l-12-11c3-7 7-13 12-19l11-12-12-11c8-8 19-14 31-17l27 12 10 3 1-4c10-5 21-10 34-13 9-6 17-14 22-24-1-11-6-23-13-34l-19-13c-3-1-6 1-9 5l-17 36c-11 5-24 8-37 9-11-5-23-13-35-22l-33-17c-9-8-17-17-22-29l-84-541-10-33-20-145-10-33-49-324c-6-8-14-16-24-22l-140 446-43 59c-8 7-19 12-31 17 5 8 12 14 22 18l21-5-5 59-14 49-2 22-6 6-11 53c-8 7-18 13-31 17 0 11 2 23 5 35l-4 41-47 182-39 3c-6 7-11 16-14 26l36 18 1 11-12 30-39 139c-4 13-14 19-28 18-11 0-22 3-33 10-4 13 1 24 14 31l33-10 10 33v42l-13 45-19 40c-11 3-23 5-35 5-8-6-15-13-21-21 9-5 17-11 24-19-2-10-9-20-19-28-8 5-14 13-19 25-13 1-27 1-41-1l-12-26-10-33c-9-2-20-1-31 2-9 6-20 10-34 13l-41-16c-10 3-19 9-28 18l-18 10-8-14-1-38-10 12c-11 3-23 4-35 1-12-4-25-5-40-5-14 1-27 1-42-1l-28-24-19-28-14-31-4-12h-23l-20 32h-38l-25-4 197-707c4-14 11-27 19-40l86 17c2 13 2 28 0 41l-11 27 10 7 18-25c3-7 9-13 17-18l33 6 9 7 27 12h12l32-9 34 2c11 6 21 14 31 24l55 46 11-38c15-1 28-1 42 1l32 21c9-1 18-5 26-11 1-9-1-18-8-25l-31-24-43-9-35 4-68-42-116-4-44-17-69-39c-13-3-24 2-31 13-4-10-6-20-6-32l51-184 16-45c10-5 18-13 25-22-11-6-16-16-14-31l116-415 15-41c3 12 5 25 4 39l20-17 33-80 55-252 12 11c6 8 13 15 21 21l14-22-1-12-25-18-5-36-15 11-43 127-17 18 159-571 15-41 14-49 12-30-38 136-13 87-38 136-2 22c5-1 10-3 14-7l26-26 28-18 33-9 33 6 14-38 9-46c10-2 20-2 30 1l12-19v-11l-19-29-7-153-5-36-14-31c-5-11-8-24-9-36l4-41zm87 56-1 56 10 48 17 47 11 18h26c5-7 8-16 11-26l-2-8-1-12-36-90c-10-11-22-23-36-33zm189 165-16 18 8 10c11 8 23 16 36 22 4 0 7-1 8-5l-2-20 2-7-37-19zm1147 355-8 28 13-19c1-4-1-7-5-9zm-1471-371-4 25-9 5 12-30zm1323 400-25 38c-2 12-2 26 0 41-10 7-22 14-35 20l-35-10c-5-1-9 1-13 4l81 24 8-28 30-78c-1-4-4-7-9-10zm116 45c-14 6-28 14-41 26l-37 132c10 9 19 21 28 35l-14 121-1 56c3 15 7 30 14 45l28-128 6-115c-2-16-8-31-17-47l18-66c8-20 23-27 44-21-1-17-10-30-27-38zm-910-252c17 7 25 20 23 40-14-9-21-22-23-40zm1005 389 3 16 33 6c-11-9-23-16-35-22zm-1404-397c4 7 10 13 18 16l-18-16zm428 122 22 17-25-4 4-14zm723 243-19 28-6 32c-10 18-19 41-26 68-3 19-4 41-4 67-1 19 0 40 2 64h15l32-115v-15l12-72c5-19 4-38-6-58zm-1035-293c0 6 3 11 7 14l-7-14zm56 16-12 19 18 2 16-14-22-6zm1324 415-61-14c1 6 5 11 11 15l41 15 15 1c1-7-1-13-7-17zm-1261-366-1 15 16-2-15-12zm-212-28-21 5 1 24c8-8 15-18 20-28zm1183 374-14 64c-3 16-3 32-2 48l21-61c3-16 1-33-5-50zm-831-240c2 13 4 28 7 43 9 8 20 15 32 21 2-13 1-27-3-43l-36-22zm-99 31c2 8 6 16 12 23-2-8-6-16-12-23zm121 70-13 34c11 6 25 13 40 19 0-22-8-39-27-53zm-568-163-13 87-16 44c7 7 16 12 26 15l28-86-1-38c-6-7-14-14-24-22zm80 27-8 43 17 5c0-15-2-32-9-48zm-158-32-10 9c0 10 1 20 3 31 6-8 11-18 16-29l-9-10zm300 118-10 23 24 7c-1-11-6-22-14-31zm79 42-12 42 23-1 8-16v-15l-21-10zm140 41c-1 11 0 23 1 35 3-11 3-22-1-35zm-493-133-10 9c1 5 3 11 6 17l7-24-3-1zm1530 461v15c8-1 15-5 21-9l-21-6zm-903-250-24 5 16 8 18 5c0-6-3-12-11-18zm753 221-4 29c8 1 17 1 26 0l8-16-31-13zm67 31-18 66 4 1 1 23 28-6 22-24c2-7 1-14-1-23-8-13-20-26-35-37zm-1334-388c-11 12-21 26-32 44l-15 15-19-2-6-6-24-7c4 9 11 17 20 24 10 13 15 30 13 49l-8 28c9 2 19 2 30 2l60-134-19-13zm1203 357-17 37c-7 7-17 13-28 18-10 2-20 8-28 18-1 9 1 20 7 32l39 8 18-37 14-52-1-12-4-13zm-795-230-8 58 109 32-47-48c-13-14-31-28-53-42zm-330-93c-3 12 2 21 16 27 3-11-3-21-16-27zm68 69-1 45 19-2 11-27-30-16zm-300-35-10 23c1 5 4 8 8 10l13-19-11-15zm1468 439c-18 0-35 4-54 14 7 20 8 43 4 69l-29 75-6 21 39-19c19 6 33 1 41-14l-16-9-8 1-7-2 12-42c12-15 27-31 44-48 1-18-6-33-20-47zm-1420-409c-7 8-14 19-20 31l18 2c8-7 14-17 19-28l-17-5zm567 166c6 8 14 16 24 22-5-9-14-16-24-22zm955 295c-9 10-17 21-25 35 1 13 5 25 12 37 8-10 14-21 17-32 2-13 1-26-5-39zm-233-46-33 107-7 51c3 10 9 17 16 23l23-42 11-53c2-15 3-32 2-48-1-13-5-25-13-38zm-1415-385-26 106-7 10 26-106 7-10zm726 221c-12 0-24 1-39 3l12 26 33-9c2-7 0-14-5-20zm-366-89c-10 19-19 41-27 68l-9 47 14 7c8-4 12-9 15-14l21-99-13-8zm-211-46-39 139 20 13 11-1 16-44 12-83c-3-10-10-18-20-24zm-65-12 1 38 23-1c1-16-8-29-24-37zm603 215-9 46 13 8c16 7 31 17 44 32l6 32 12-42 68 12 6-32c-14-9-30-16-47-21-17 0-34-2-52-4-11-10-25-20-41-31zm918 280-6 10-5 29 24 7 14-38-28-8zm-1342-375c0 10 3 21 10 33 2-12-1-22-10-33zm-205-52-5 17 23-1-18-16zm1432 458-50 193-1 45 4 39-5 47-5 18 29 5 16-44 24-140-2-129c-2-11-5-21-10-33zm-114-11-20 2-43 195-8 70c8 4 20 10 33 17l6 58-31 274c-4 19-5 40-3 63l21 6-19 123c-2 21-6 44-12 69-1 9 0 20 3 31 8-2 15-6 22-13l16-29 37-242c-13 1-26 4-40 11-3-21-2-43 3-67l17-33 17 20c2 8 4 18 7 28l12-30 7-24-32-6-10-7c-13-15-18-34-14-57l29-116 4-28-15-54-5-61 27-192-9-7zm-1038-297c-6 11-12 24-18 40l-4 14 24-5 23-30-25-19zm-292-78-6 9-13 61 17 5 13-45c-1-11-4-20-11-29zm716 259-11 27 1 11 32 62c7 8 14 16 24 23l10-23-31-39-6-32c-4-10-11-19-19-28zm-815-228-13 34 14 4c1-12 1-25-1-38zm1640 501c-7 3-12 7-19 13 9-1 15-6 19-13zm-1146-332-6 9 7 2 6-6-6-5zm-353-77-7 13-7 40 17 5 17-48-20-10zm175 51c1 10 4 20 11 29 1-11-2-21-11-29zm-336-72-10 35 8-1c3-11 4-22 1-33zm1703 507c-1 9-1 18 0 26l6-21-6-6zm-1439-419 4 13c1-5 0-9-4-13zm1373 426-17 37h15c4 0 7-2 9-5l2-22-9-10zm-750-216c-2 15-2 30-1 45h15c4-17 0-32-14-46zm24 79c-3 16 1 31 14 45l9-32-23-14zm-210-47c0 15 3 30 10 44l2-37-13-8zm931 273c-9 8-16 18-21 32l17 5c7-6 13-13 18-21l-14-16zm50 22c3 7 8 11 15 15-3-7-8-12-15-15zm-1656-482-10 23 24 7 10-23-24-7zm1700 502-9 32-19-2-116 11-45-2c-9 2-18 8-28 18l-24 19c-1 12 1 24 9 37l14-38 124 2 39-3c10-5 20-10 31-17 10-7 18-16 26-26l11-27-14-4zm-1422-387c-1 9 2 17 9 25 1-9-2-17-9-25zm-344-97-39 124 58-43c1-7 1-15-1-23-3-17-9-36-18-58zm1430 442-9 43 12-30c1-5-1-9-4-13zm-106-27 12 11 9-5-21-6zm-360-94c4 10 11 18 20 24-3-11-9-18-20-24zm-635-168-14 26 24 7c1-12-2-23-10-33zm95 28-12 15 18 32c0 17 5 32 17 47l15-26 1-30c-7-17-20-30-39-38zm-293-78-13 22 1 8 1 11 18 5c7-11 13-25 18-40l-24-7zm630 185-16 3 12 38 29 43c6-2 9-6 11-12l-2-35c-9-13-21-25-35-37zm440 148-8 16 11 3c1-6 0-13-2-19zm514 166-14 25 12-4 5-18-3-4zm-88-23-11 53c7 10 17 16 28 20l16-29-4-12c-6-12-16-23-29-32zm-269-67-51 302c7 8 15 15 25 19l53-301c-7-8-17-15-28-20zm-1191-335c-12 2-24 7-35 16l14 4c10-3 17-10 21-20zm163 56-9 32 17 5c2-13-1-25-9-37zm573 184-4 44c2 11 6 22 10 33l15 31c7 8 16 14 25 18 3-13 5-26 4-40l-6-36-15-27-28-23zm-868-228c1 6 5 11 11 14-1-6-5-11-11-14zm735 216c4 17 9 35 15 53 5 16 12 33 20 51l20 51c8 16 20 28 36 34l13-34-4-28c-2-17-8-36-15-53-9-15-20-29-34-44-14-11-31-21-52-30zm-368-63c6 12 16 21 27 27-4-13-13-23-27-27zm-322-27-22 50c-2 13 3 23 14 31 8-13 15-28 20-43 3-14 0-27-12-38zm313 111-1 18 22 3c3-11-2-20-15-27l-6 6zm1264 382 4 13 11-12-10-7-6 6zm-1744-508-9 32 14 4 9-32-14-4zm1675 499-17 32 19 13 19-40-21-6zm-431-112c4 10 10 21 18 32l33 17c-1-12-6-22-14-31l-37-19zm-858-236c-3 14-4 29-1 45 4-14 4-29 1-45zm-123-32-1 18 8-13-6-5zm1474 433-17 32-10 92 21 6c5-18 6-39 3-64l3-67zm-605-167-6 10-1 45c3 14 12 25 29 31l7-13 7-40c-6-16-17-28-37-33zm-1062-251c-3 11-4 25-3 40l10 7 25 4c2-9 2-19-3-31l-29-19zm893 262c-6 23 3 40 27 53l9-32c-11-8-23-16-35-21zm344 123c-11 7-24 13-39 19l-39 19c-16 0-34-2-52-4-3 15 3 26 17 35l47-5c13-3 25-8 38-15l43-18 10-23-25-7zm-178-26-24 5c0 8-2 18-4 29l-25 105-7 10c-8 13-20 20-39 19-14 4-25 15-32 32-10 11-21 22-35 31l-24 46-5 17 20 10 9-5 25-49 61 37 52-143 14-49 9-4 11-12 7-35c-1-14-5-28-12-41zm248 77-9 8 10 3 3-10-4-1zm-939-272-8 16 2 8 22 3 9-20-24-7zm1003 301c-11 18-21 39-29 63l-19 55 10 6v26l-19 40c-4 17-6 35-7 54l-6 198c0 17 8 28 24 34l16-59 19-217c4-21 5-43 4-67-3-19-5-39-6-62 17-5 32-14 46-28-4-19-15-34-33-44zm-445-127c-1 10-2 20-1 30l29 5c-2-16-11-28-28-35zm312 130c1 9 4 17 12 26 0-10-4-19-12-26zm-884-225-18-2-9 20 10 3 19 2 9-20-10-3zm1220 365-21 47-15 52c0 5 1 9 4 13 9-14 17-32 26-53l10-50-5-9zm-1712-487-5 17 23 3c-4-7-10-13-18-20zm398 121-11 15c1 5 4 8 8 10l44 17 14-22-55-20zm-92-23-14 7 22 6c0-6-2-10-8-13zm-146-20-26 120c7 1 15 1 23-1l22-54v-15c2-20-4-37-19-51zm810 245-5 18 21 6c-3-9-8-17-16-24zm598 191c-6 21-16 44-30 66l-12 4v53c2 19 3 42 0 68-2 20-2 43 0 68l17 5 25-200c3-17 7-36 12-56l-13-8zm-1113-316c0 10 4 19 12 27 0-10-4-19-12-27zm-172-47c-6 2-10 5-14 11 7 4 16 8 27 12l12-16-24-7zm-221-49-6 21c9-4 17-9 23-16l-17-5zm1045 326 20 24-34-2c4-8 8-15 14-22zm-701-187c-12 11-26 20-42 29l-5 47 10 3c17-2 29-11 38-27l10-50-10-3zm-196-42-5 29 25 4 10-23-31-9zm78 57c-12 8-27 17-45 24-13 5-27 12-40 22l-47 88 9 7 31-44c11-12 23-22 35-31l38-26c9-8 17-16 23-27l-4-12zm1360 448-16 2-13 61c-3 20 2 40 13 61 9-10 18-21 25-34l4-28c5-21 0-41-13-61zm-311-80c-1 7 1 14 6 21 2-8 0-15-6-21zm174 179-8 58c1 14 8 25 20 36l8-58c2-15-5-28-20-36zm-1437-414c-3 16 1 31 14 46 3-16-2-31-14-46zm83 55-4 29 6 6 19-2c0-14-7-25-21-33zm1231 380-8 43c5 7 12 13 22 17l15-41-29-20zm77 49-16 15 18 5c2-7 1-13-2-20zm-1323-362c-2 13-3 26-4 41l29 1 11-27-37-15zm143 72c0 6 2 13 5 21 2-8 0-15-5-21zm998 305c0 10 2 21 6 32l16-3 6-6v-15l-27-8zm-1358-372-6 21 11-12-5-9zm105 42-15 52c1 9 5 18 12 26l17-48c4-13-1-24-15-31zm1171 351-7 40-23-11 4-29h26zm-1059-303c-7 6-13 14-19 25l-5 32c4 16 9 32 16 50l15-26 4-29c1-16-3-34-12-52zm-235-28-16 29 17 5 12-30-14-4zm1664 523-16 44 1 12 30 39 13-61c-2-16-11-28-28-35zm-11 121-6 36h15l12-30-21-6zm-1443-393c22 8 32 23 29 46l-42-12 13-34zm-105-19 39 11-12 15h-26v-26zm-121-28 24 10-28 7 5-17zm2594-2014 72 21 9 6 283 87c6 3 10 7 13 12l-15 55 3 43 100 18-8 28c16 16 34 31 55 46l-58 21-51 34c-16 11-37 18-63 19h-26l11 71-37 1-23 27 150 97 14 61-5 55-8 9-15 37-33-14c-19-13-32-31-38-53l1-18c-17-2-34-2-52 0 9 15 23 31 43 47 11 17 26 33 45 47 9 16 22 34 37 52l-21 20-47-18 11 19 1 12-12 26 27 16 12 11c-8 12-20 22-35 31-8-1-15 0-21 2 8 11 19 21 32 32 3 2 6 5 7 10-7 15-14 33-20 55l-54-12-37 19 6 17c10 15 23 32 39 49 14 16 22 35 25 57l-14 49-6 5-8 9c-17 4-29 13-38 27 4 10 7 21 6 31l-48-14-48-33-4 14 28 12 2 31-12 4c-14 10-26 23-37 38l33 55c-23 0-42 8-58 21 9 17 13 35 10 56-8 3-15 7-19 13l6 89-8 9c-23-11-40-27-49-49-4-17-13-35-27-53l-17 62 28 50 31 1-40 90 19 6c21-1 43-4 66-11 15-10 35-19 58-24l2 15-16 37-7 9c-10 9-18 19-24 31 0 6 3 11 11 18l1 34-44-9 32 32-11 38-35-3c-10 7-17 16-23 27l20 17c14 8 21 19 22 34l-38-15-67-39-30-5c3 11 9 22 16 35 6 20 7 42 3 65l-14 49 18 9 47 17 21 3 7 13-25 68c-6 19-17 39-32 59l-22 24 20 36-26 37-18 48c-5 3-11 4-17 3-16-13-30-29-44-47-2-20-2-43 3-67l-4-24-50-7-28 7c2 10 7 19 13 27l40 23-16 22c-28-2-48 4-62 20l39 49-50-7c2-8-1-16-9-25l-54 7 34-47c-3-5-9-9-17-13l13-45-17-16c10-14 27-22 50-27 22-4 45-7 71-10l32-2 4-37-23-11-11 1-10-3-21 16-70 10c-13 16-24 32-35 50l-27 4-3 70-36-3 15-72c-23-4-50-7-80-8l-63 16-125-14c5-7 14-14 26-19l23-27c11-3 22-6 35-12l-11-15c23-5 51-4 82 5 17 3 29-2 35-16l-79-15-9-25-66-27 562-2015zm64 49c-13 6-25 15-34 28v94c4 11 13 21 28 31l33-24 8-50-2-46c-6-11-16-22-33-32zm179 158c-9 8-14 17-18 29l14 8 44 9 20-13-7-13-52-19zm60 82c-15 2-28 6-40 15l30 5c14-1 27-5 39-11l-29-8zm-261-73-18 48 30 5 14-34-26-19zm413 162 44 13c-3 8-8 14-16 22l-39-8 12-27zm-230 23c-1 7 2 15 10 21 1-7-2-15-10-21zm211 65c14 9 26 20 36 34l-42-12 6-21zm-70 6 12 30-23-7 11-23zm59 70 33 10-5 18-33-10 5-18zm-300-46c4 7 11 13 21 17l-21-17zm181 64 9 41c8 10 20 17 35 22l13-27-12-11-45-25zm-198 127-18 10c8 0 15-3 18-10zm130 57 30 24c-7-9-17-17-30-24zm-135-2-2 27 54 12 2-23-54-16zm3 84 4 24 23 10h10c-5-14-18-25-37-34zm-61 32-14 11 33 10c-3-7-10-14-19-21zm89 53-60-10c-5 1-9 4-13 8 0 5 4 11 10 18l51 4 19-10c0-3-3-6-8-9zm-106 44c-5 7-9 16-13 26l-3 10 5 2 33 29 18 9-16 19c2 10 6 22 12 33l19-32 1-41c-14-20-33-39-58-54zm133 43c-15 2-31 8-46 17 13 10 27 20 44 28 18 3 31-2 40-15-6-15-18-24-38-30zm79 129c-3 19 11 33 40 42-4-17-17-31-40-42zm-180-12-23 46 12 90c-1 12 4 25 15 38l10-54 16-22-7-14c-13-13-17-28-14-45l10-35-19-6zm-16 188-13 45 31 1 14-33-32-13zm-271-72-2 44 16-3 10-16-4-5 4-14-23-7zm250 149-4 29c7 6 14 11 23 14l12-24-31-20zm-274-46c-5 2-9 6-13 11l1 34c6 13 15 26 31 39l16-37-2-12c-9-12-19-24-32-36zm140 131-23 65c-1 18 10 33 34 43l27-98-38-11zm-179-30 3 99 18 69 32-2 16-22-2-12 22-95-89-38zm268 271c-10 11-16 23-20 36 3 13 9 28 19 43l34-65-33-14zm-268-30 2 50 35 6 11-39-47-18zm253 120c-7 6-12 14-17 25 0 5 2 9 7 13l13-26 3-10-5-2zm-241-48-7 24 40 4c-9-10-20-20-33-28zm-179 80c7 8 16 14 26 19-7-7-16-14-26-19zm118 80-37 42c5 14 13 27 25 41l25 4v-37l-13-49zm-68 40c-19 3-39 6-61 12l-24 31c0 5 3 9 7 13 20-2 37-8 52-19 11-9 20-22 27-37zm252 82-20-2c-1 10 1 21 7 32l25-15c-1-5-5-10-12-14zm-204 8-29 44c9 10 21 19 34 26 17-7 29-19 36-35-11-12-25-23-42-35zm285 302 38 15 1 12-6 5-34-6 1-26zm-354-92c24 10 35 26 33 47l-5 18-34-7-7-13-48-14-3-27 64-4zm121 50-7 62-20-2-4-5c-2-19-2-37 1-56 9 2 20 3 31 1zm-127 23 24 26c-5 6-11 10-19 13-9-7-17-17-23-29l18-10zm-205-26c5 13 9 27 10 40l-4 89c16 5 33 6 51 3l50-68c4-3 9-3 16-3l27 15 157 72c7-2 12-7 14-14 0-8 0-18 3-29l25 3c17 7 26 19 27 34 5 12 13 24 27 34 13 9 24 20 32 32l19 82c8 9 19 19 33 28 15 8 30 19 44 31-19 0-37-1-56-5l-535-157 27-98 32-92zm199 145c5 8 12 14 21 18l-21-18zm1867-2116 112 33 44 20c13 6 21 17 26 32l6 16 21-11 71 10 1 25c-5 15-12 30-21 47l-9 46c-2 13-1 27 2 43l3 25-18 1-13 24 18 1c12-3 22-12 28-27l32-152c12 5 23 12 33 21l9 41 24 31 125 16-1 17-15 3c-1 7-2 16 0 25l35-12c9 9 17 20 22 35l-29 16c3 11 8 23 14 36l5 22 24 3c8-5 14-13 17-22-10-10-21-18-32-24l6-20c8 5 17 11 27 19l35 24 72 97 31 76 32 164 4 89-13 98-15 55-50 105-29-12-105-27-35-27-33-7 5-19c1-13 1-28-2-43l-22-10-12 18-18 1-8-23 2-32c5 1 10 0 15-2 1-11-2-18-8-23l-32 25c-9 10-18 21-24 35-4 13-13 21-28 23 2-12-1-25-10-38l-49-4-36 14-39-26-31-13-12 4-34-6 5-17 38-7 51 8 11-17-18-9-50-11c-11-5-21-11-29-20l-17-40 1-91c-3-12-6-24-11-38-3-11-8-23-15-36l-30-30-38-25-48-17c-12-7-22-17-30-30-11-8-24-14-38-18l-91-2c-1-14-7-27-18-37-13 2-24 11-29 27-10 9-24 12-40 9l-82-14 6-23 38-10c-4-10-10-22-18-34-10-9-14-21-12-35-9 6-20 13-34 18l-24-4-5-5 6-34c-9-1-19-1-29 2l-46-10-19 16c2 4 6 7 11 10l33 10-2 20c2 12 1 25-1 39l-13 35-108-4-37-8-8-9c-5-11-10-23-14-36l4-37 9-8c13-1 25-4 38-10 7-12 17-23 28-34 14 0 24-7 30-20-9-8-15-19-16-32l16-20-10-15-10-38c-5-11-15-20-27-29 4-12 10-23 20-33l48 4c5-1 8-3 9-8v-26c11-5 22-10 36-14l102-22 5 18c8-6 15-13 20-22 10-7 23-12 39-16l39-10 83-10 91 2 50 11c12-4 24-10 36-18zm228 134-7 12h14c0-5-3-9-7-12zm-231-61-12 56c2 12 5 25 10 38l16-58c-1-12-6-24-15-36zm139 83 4 15c1-5-1-10-4-15zm-237-62c-2 12-2 25 0 39l8 13h27l17-22-7-14-45-16zm-139-6 1 11c6-3 12-7 17-12l-13-4-5 5zm402 128-97 18c-16 1-33 1-52-2-16-2-31 3-43 16l-45 19c-15 1-30 5-45 11l-42 12-19 29 2 15c15-1 30-3 47-7 16-3 31-6 46-11 15-4 29-9 43-16l91-22c14-3 28-8 43-16l46-11h14l11-25 3-10-4-1zm272 87-18 1-4 27 16 5c9-8 17-18 22-28l-16-5zm-249-59c5 6 12 12 21 17-5-7-12-13-21-17zm153 45-13 48 18-1 25-25c-8-9-18-16-30-22zm-540-95-2 20 17 1 13-21-20-6-8 5zm691 203c-4 2-7 5-10 10 1 9 6 17 11 25l16-30-17-5zm-76-6c0 13 1 27 3 40 7 8 18 14 30 19l8-29-12-7c-8-9-18-16-29-23zm-823-234-14 35 6 67c0 8 2 16 8 24 8-10 14-21 20-33l-9-31 12-42c-6-9-14-16-23-21zm1007 306c-9 15-21 28-38 38l-38-15-11 15-14 35c6 0 13-1 19-5 12-4 25-4 39-3-3 17 1 34 10 52 13-11 23-26 30-44 14-5 25-17 30-34-1-18-10-31-28-39zm-251-70-3 23 27 4 9-18-32-9zm-873-246-9 32 31 1 13-21-35-13zm173 51-13 45 16 5 13-45-16-5zm117 87-5 19 15 8 5-3 9-18-23-7zm485 145-13 21 2 8 1 11 24 3 16-34-29-8zm-322-87-19 54-5 31 18-2 23-46c2-16-4-28-18-36zm-271-77-14 24-3 10h8l13-24-4-9zm-239-44 7 15-16 7 9-22zm326 120c-12 0-23 3-33 7-2 8 0 15 4 23l32-5 10-22-13-4zm-356-88 14 39-3 24-18 1-5-5-25-11 9-19 29-31zm612 194-8 40 22-1c4-15-1-28-14-39zm543 167 11-1-12-7 2 8zm-98-33-7 26 22 10c3-14-2-26-15-36zm-727-185-6 23 19-2c-2-8-6-15-12-21zm812 249-17 23 16 5 13-18c-3-4-7-8-11-10zm-929-262c13 4 25 11 37 22l-19 43-37-7 5-17 15-41zm575 190-12 21h10l10-14-9-6zm134 39c-1 4 0 8 3 11 1-4 0-8-3-11zm-920-242c0 10 3 21 9 31l10-25-20-6zm423 127c-7 14-15 27-25 38-10 16-24 26-43 30l-4-22c5-11 11-22 20-33 15-4 33-9 53-13zm683 207-10 22 14 1c2-8 1-15-4-22zm-1195-330c9 9 12 20 9 34-10-10-12-21-9-34zm386 120 17 5c-4 6-10 11-18 12l-29 17c-3-7-3-14-2-22l32-11zm-99-12 17 5c-3 10-10 18-18 26l-8-23 9-8zm-168-4 46 14 9 6c8 13 11 28 9 45l-4 26c-3 9-7 17-14 24l-32 25c-12-4-23-9-34-16l-9 8-11 25-21-14-51-17c-6 6-10 14-14 24l15 11 18 9-13 31-10 11 2 31-8 44-6 8c-16-2-33-6-54-12l-18 54-22 1-6-26-56-16c-14-7-23-18-25-35l14-35 55 16 6 15 21 13 8-1v-14c-4-14-9-27-17-40 9-12 20-21 33-29 11-6 19-15 26-27l-43-23c-11-10-21-20-30-33l-1-25 23-5c1-15-1-30-5-47 11-8 22-17 33-29l33 6 9 10c6 10 13 19 23 27l26-41 52 5 43-5zm224 70c3 16 12 29 29 37-5 12-13 24-24 34l-35 28c-6 6-11 14-14 24l18 1c14-1 30-3 47-7l33-29c9-12 20-24 32-36 16 7 21 22 15 43-1 16-1 33 0 51v50c2 15 9 29 21 41l24 38 4 51c-1 15 1 30 5 46 12 0 27-2 43-5l75 64 60 71 34 31 144 179 21 38c11 11 23 21 37 31 10 11 20 23 29 37 8 13 15 26 20 41-4 17-6 36-5 55 13 1 27-1 40-6l37 33 36 84c6 14 12 27 21 41l20 41 4 50c3 14 7 28 13 42l32 139-4 52c-5 9-12 18-21 26-1 5 0 10 2 15 0 16-1 34-5 54l-15 52 2 7-5 45h-11l-31-12-10 22c13 8 28 15 44 20l-5 19-43-9c-14-6-21-18-18-37 4-15 2-31-7-48-10 10-20 21-28 34 1 15 5 30 12 46l5 12-26 56c8-5 14-11 18-19l7-12 33 20c0 15 6 29 16 43l-22 42-10 46-11 1c-13 6-25 17-34 32l-27 45c-5 13-15 25-30 32-11 11-21 23-31 37-10 9-22 19-36 28l-39 16-113 76-40 19-232 45-199-9-9-6-115-27c-14-4-27-10-41-18l-93-34-11-1-111-29 1-18c0-14-4-28-13-42-16-5-34-12-53-22l-129-83-37-33-91-104-25-39-15-43-9-48c-5-14-13-26-24-39l-7-48c-3-7-5-16-4-26l17-9-15-43-4-50c14-2 28-7 43-14l41 15 10-7c12 3 26 1 40-6l-42-15h-10l-99-25 6-23 29-16c-16-6-21-19-16-39l4-56 56-237c17 0 34 2 52 5l1 49c-1 15 3 29 13 42l13-10 6-58 36 11c17 6 24 17 23 35l-19 19 6 16 12 6-10 36-13-4-14 49-6 6 9 48-5 55c-5 14-17 21-34 21-14 0-29 3-45 7 10 14 24 24 41 30 15 1 28-2 41-9v14l-13 31-2 6 4 1-4 52 12 46c15-3 30-6 46-11 14 5 25 14 35 27v22l-30-2-49 8-26 19 53 1c12 0 26 1 40 5 14-2 28-7 43-16l30-32c16-2 26-12 32-27-1-10-3-20-6-30l13-9c13-7 27-12 43-16l55 6c15 3 29-1 41-12h12l22 10 68 20c5 0 9-1 12-4-4-15-14-26-30-33-17-5-36-9-57-10l-45-13-8-9-9-48c-15-1-26 4-36 17-16 6-34 7-54 2l-45-13-8-9c10-13 18-29 24-49-1-16-2-32 0-50 8-14 22-22 42-22l23 7 10-36c8-1 18-1 28 1l-6-18-21-14 15-27c14-3 29-8 43-16 8-5 19-6 30-5l-2 20 8 49c9 11 21 21 34 31l12-21-14-14-11-7 12-42 52-3 59 17c16 7 30 17 44 31l-63 290 19 42 58 72 38 29 54 22 54 9 51-3 42-12c11-10 22-20 34-33l27-44 21-54 8-54-8-49-49-126-53-75-37-33-30-33-37-31-29-37-37-31c-11-11-20-23-29-37l-4-36 78 23 18 1-6-30-42-16-60 4-34-4 10-22c12-5 26-12 40-20 17 0 34 2 52 5l36 11c1-6 0-12-3-19l-58-20c-15 0-31 2-47 7-9 8-21 13-33 18-12-9-23-21-33-34l-20-41-12-7 4-27 31-9-2-29 2-34 14-10c1-14 1-31-1-49-3-9-8-16-16-23l-20 47-16-19 17-48 3-10c11-2 24-5 38-10 11-10 23-19 36-28 10-9 16-20 20-33-14-6-24-17-30-33 12-10 24-18 39-24l31-2c0 6 1 12 3 19 11 11 23 21 37 29 5 3 7 9 7 16-7 0-14 2-20 7l-1 28 18-1c10-11 22-22 37-32l46 24c12 10 24 21 36 35l24 1 13 18 23 7 9-22-1-8-83-55-29-37-54-23-23-7 6-23 17 5c15 4 33 5 54 6 14-5 27-11 42-19l6-12-6-2-85-11c-16-5-30-15-41-29-13-11-26-20-41-29l-36-11 32-76 13-45-5-12c-3-7-5-16-7-26l22-1c13-3 25-11 37-20l-45-13-6 8 3-34c5 0 12-2 19-5l36-28c10-11 21-20 33-29l43-16zm822 252c2 10 6 21 13 32l-11 25 9 5 15-41 4-13-30-9zm-1200-348c9 5 16 12 23 21-8-1-17-3-27-5l4-15zm883 298c4 12 13 21 26 24-4-12-12-20-26-24zm-803-201-10 22h14c2-8 1-15-4-22zm910 288c-8 3-16 7-25 15 6 6 14 11 25 14 13-1 21-7 26-21l-26-8zm350 110c-5 1-11 4-17 9l16 7 4-13-3-3zm-908-228c-16-2-30 3-43 16l54 4c-1-7-4-14-11-20zm-431-124c3 7 7 12 14 16-3-7-7-12-14-16zm101 44 42 12c12 4 18 13 17 27l-8 39c-5 9-13 17-23 21l-32 1-2-32 11-25 3-10-4-1c-2-10-4-21-4-33zm-220-33c9 10 18 22 25 36l5 32c-2 5-5 9-10 11l-41-4 21-75zm400 134c4 9 9 17 18 23 0-11-6-19-18-23zm120 61c-8 5-15 12-22 20l17 13c10-5 17-14 21-26l-16-7zm-132-4-9 18 24 4c1-11-4-18-15-22zm114 54c-7 10-13 23-17 38l23 7c3-1 7-3 10-7l5-31-20-6zm-223-44 2 29c-3 4-8 6-12 7l-3-29 13-7zm282 100-13 18 14 1c1-6 1-12-1-18zm-241-46 68 48-12 7-52-5-16-5 13-45zm-203-56 19 6 1 11-10 22c-8 9-19 18-32 25-9-10-12-23-10-38 14-2 24-10 32-26zm597 211c0 6 3 12 10 17 0-6-4-13-10-17zm-134-15c0 5 2 8 5 12l-5-12zm155 113c2 4 5 7 9 9l-9-9zm-112 10-5 33h14c1-11-2-23-9-33zm141 52-24-1c-2 6-1 12 1 18 13 4 23 13 31 27l9 5h8l-25-50zm-578-139 23 7-6 23-23-7 6-23zm344 105-8 30 23 7c0-13-5-25-14-36zm-213-44-6 29 29-2 12-17-36-11zm51 32-7 40 37 7c-3-19-12-35-29-47zm604 185c-10 14-19 31-25 52l-31 149c6 1 14 0 22-1l14-63c5-15 12-33 23-53l14-13-7-28 7-39-16-5zm-539-138-1 18c8-2 14-6 20-12l-19-6zm632 224-9 32 31 6c-1-15-8-28-22-39zm-445-98c-8 3-15 8-21 14 6 6 14 12 24 17l13 4c-1-12-6-24-15-35zm-317-90-5 17 21 2c-3-7-9-13-17-19zm746 219c-13 3-23 12-32 27-7 9-15 21-24 34l-19 44 3 39c10 2 22 1 32-1l44-131c1-4-1-9-4-12zm-668-192c3 7 8 12 16 15-5-6-10-11-16-15zm459 145-6 23c8-3 14-10 19-19l-13-4zm-377-103c2 8 5 15 12 20l7-15-20-6zm-97 34c8 9 17 17 29 23l32 16 7-15-67-23zm730 214-12 42 9 6-10 25 15 8 4-2 17-48c-1-14-9-25-24-31zm-160 44c-8 19-22 31-43 39l-24-3-102-51-55-16-15 2-32 12 2 22 74 22c22 6 44 16 67 30l66 27c18 8 34 21 48 39 5 18 7 38 4 61 0 19 9 35 25 50l22 9c-1-11-3-22-8-33-4-17-6-38-7-63 7-2 14-6 20-11l8-40c-12-17-17-36-13-56-10-14-22-27-38-39zm166 62c2 10 8 19 17 27 1-11-5-20-17-27zm-617-139-4 76c10 0 22-1 33-4l15-13-15-22c-8-13-17-26-29-37zm676 219c5 6 10 10 17 13l-17-13zm-554-124-9 19 26 8c-3-9-9-18-17-27zm200 81-9 18 34 18 7-24-32-12zm312 94c-16 15-35 21-58 19l-32 5-6 33 1 35 33 6c17-2 34-11 49-24 4 19 15 35 32 48l36 11-11-24c-13-15-20-34-23-56l5-41c-7-4-15-8-25-11zm111 55-7 15c1 5 3 8 8 10l8-18-9-6zm1 49c-9 6-18 14-23 24 3 10 8 20 16 30 10-5 17-13 21-26-2-11-6-20-14-29zm-418-80c-10 4-19 10-27 19l17 5c9-4 17-12 24-20l-13-4zm86 42-3 35 22 9h7c0-17-9-32-27-44zm204 68-18 23-24-25-19-6c-1 14 2 29 8 45 17 1 37 4 61 10l14-27c-6-7-13-13-21-20zm-1245-355c14 5 23 14 27 29l-27 98-5 30-11 4c-5-12-7-25-7-41l-11-35 34-85zm1123 336-31 9c0 5 3 9 8 12l23 7c2-8 2-18 1-28zm-1049-300 36 11-17 62-26 20-1 41c-9 6-21 7-33 4l11-50 31-89zm908 270-1 17c8-2 14-5 20-11l-20-6zm433 127-16-2c5 7 12 12 20 16l7-11-11-3zm-83-18-5 19c7-3 13-8 18-15l-13-4zm-290-71-23 7c-2 11-1 21 2 31l14 1 8-30 6-8-7-2zm104 55-11 39 22-1 15-30-26-8zm99 47-33 7-6 34c11 6 23 13 36 18l15-16 46-12c-16-11-36-21-59-31zm-1017-268 9 70c4 8 10 15 19 20l18-5v14c6-2 11-6 14-13l-8-9-17-26-13-28c-7-6-14-14-23-21zm1124 330-2 7 7-2-5-5zm-342-90-6 34c5 2 13 1 21-1 4-13-2-24-15-33zm-1150-316c-6 15-13 30-23 45l-30 34-10 22 21 14 17 40 15 11 29-82 8-51c-4-15-12-25-27-32zm284 97-9 43 1 11-11 25-14 13 9 6 33-4c7-9 12-19 16-30l-21-24c8-5 16-12 23-21l-26-19zm180 64-1 27 18-1 8-19-25-7zm928 272c3 13 10 26 21 38l8-29-29-8zm-390-97c-2 12 3 23 13 32l11-25-24-7zm-848-245 38 18 8 9-12 21-24-1-8-9v-39zm227 87-20 33 26 4c6-5 11-11 15-17l-21-20zm873 382c2 13 7 25 14 36-1-13-7-25-14-36zm-182-17-17 12c-1 3 1 6 4 9 6-6 11-13 13-21zm-620-179-7 12 10 3c1-5 0-10-2-15zm-99-25-15 55 23 7c5-20 2-41-7-61zm167 59-17 9c1 4 4 8 8 10 5 0 9-1 12-4l-2-15zm876 261c-1 5-1 9 2 15 1-5 1-9-2-15zm-1125-312-11 11 2 7 31 15c1-15-6-26-22-33zm-75-22-8 39-17-1c6-12 15-25 25-38zm701 226-49 49c-8 5-18 9-28 12-9 8-16 18-22 29l-7 39c10 5 19 13 29 23l-25 53c0 3 3 6 8 9l19-29 9-8 22 13 5-9 5-27-1-39 5-27c2-3 4-6 9-8 10-3 19-7 28-12l12-43c-2-10-8-18-17-26zm327 117-14 49 15-2 16-34-17-13zm-976-240-8 14 10 3c1-5 1-11-2-17zm85 35-6 8-3 24 17 5 11-25-19-12zm990 305-6 8 7 2 4-5-5-5zm-894-246-5 17c9-1 16-3 24-7l-19-10zm-261-73-9 32 20 3 8-30-20-6zm1046 332-12 29 18 15c10 13 24 23 41 30 1-16-7-28-25-36l-22-39zm79 23-13 21c6-5 10-12 13-21zm-1360-395-9 18 10 3c1-6 1-13-1-21zm70 49-5 33 16-6 10-11-3-11-17-5zm316 93-4 41 14 1 11-29-21-13zm167 59-40 6-11 25 60 3c1-11-2-22-9-34zm-112-1-6 37 20 3 12-29c-7-3-15-7-25-11zm-411-96c1 9 7 16 15 22-1-9-7-16-15-22zm112 39-7 37 10 3c10 7 19 17 24 28 9 9 20 17 32 24l9 7 30 5c8 5 16 10 23 17l45 7 49 14c9 1 18-3 25-14 0-14-7-24-20-31-10-7-19-15-28-26-1-4-4-7-8-9l-28-1-41 23-18-15-40-20-32-23c-6-9-14-18-25-25zm754 228c-2 13-1 28 2 43l11-39-13-4zm195 86-14 24 21 2 13-21-20-6zm-371-85-5 44c0 10 5 21 13 31l4-44-12-32zm247 73c-2 9 0 17 3 25 2-8 1-17-3-25zm-139-30-7 26 11-17c0-3-1-6-4-9zm-474-97-60 3c-14 7-23 18-28 34l13 4 59 3 15-2c2-14 3-28 1-42zm207 68-12 32 36 11c-3-15-11-29-24-42zm62 18-12 18h14l-2-18zm-219-51-20 33c-5 0-8 1-12 4-2 6-1 12 1 18 11-3 20-10 28-20 3-11 4-22 2-35zm367 115c-1 6 0 12 3 19 1-7 0-13-3-19zm-518-114c-6 3-12 7-18 13l23 7c1-7 0-14-5-19zm387 142c-6 4-13 10-19 19l11-1c6-3 12-7 18-13l-9-5zm-66 8-5 17c6-1 11-4 17-9l-12-7zm2148-2031 84 25c-4 8-9 15-17 21l-45-2-131 22-2 48 2 20 18-10c11-4 24-10 36-20 9-10 21-18 37-23l38-15 48 3 54 12c13 6 20 17 21 33l-20-10-8 1-5 18c9 11 19 21 34 29l40-49 13 22 11 41 8 14 25-8c13-6 26-9 41-10l34 14c5 1 9-1 13-4l12-19c7 2 14 7 20 13-1 14 0 29 2 46l32-32c14 6 28 12 45 16l13-19 23 11 58 62c11 8 23 16 36 22 6-10 14-19 26-26l48 3c2 13 9 25 21 33l41-10 52 18c14 3 28 4 45 2 5-17 18-25 37-23 13 1 27-3 40-11l45 13 10 7 139 45-70 250c-8 9-20 17-33 24l-40 11c-13 5-24 14-33 24 13 1 27 2 41 1l38-12 7 28-48 171c-13-1-27-2-44-6l-328-88c-8 11-15 24-22 39l-53 162c-4 13-15 23-31 28l-103-11 10-77c-6-1-11 1-17 7-5 15-15 28-30 36h-15l-33-17-42 2c-12 5-25 8-41 10-15-5-27-15-37-30l-29-31c-3-7-9-12-18-17l-1 18-9 32-28-8c-12-7-25-16-38-26-12 7-21 17-31 28l34 26 47 21 11-12 81 35c12 0 25-1 39-4l56 16c12-6 24-8 36-8l127 72c7 4 13 9 18 16-4 6-8 11-15 14 6 10 13 20 22 30l-1 15-34 81-28 33-44 36c0 8 1 18 3 27 2 7 2 15 1 23l-7 10-10 9-29 33-36 20 23 108c6 0 12 0 20-2 3-14-1-27-12-37v-15l16-33c11-8 20-19 29-33 6-4 12-5 20-5l-9 31-17 104-23 42-34-25-14 38-21 35c1 13-1 28-4 44l-14 8-1 30h26l2 19-3 25-23-14c-10 7-20 17-28 29l-79 271c-4 9-11 15-20 17-5-8-11-15-21-21v15l-7 24 24 7 1-3 6 47 25 4c1 13 1 29-1 45l-45-2 7 43-22 50-26 38-41 10-33 24c-8-6-15-13-21-21l-23 42-4 41-10 23-9-22c-13 2-25 7-38 15l-34 13c3 6 8 13 14 19l14-8c14-2 29-2 45 2l-2 37-43 74c-6-3-11-8-15-15l11-53c0-4-1-7-5-9l-19 2-5 17-1 30-16 3-48-3c-12-8-22-18-29-31-3-14-8-27-15-42l-34-25c-8 2-17 7-27 15l49 14-1 18c-4 11-11 22-21 32l-31 29-44 89c-14 8-29 9-47 5l-35-10 17-74-12-11c-4 8-8 17-11 27l-7 40-7 13-56-16c-16-7-25-18-28-35l2-143 6-51c6-13 14-27 23-42l144-557c10 9 19 21 28 35l20 13 6-21-22-6 19-25 16-29c-1-4-4-8-9-10l-31 2-4-12 2-48 8-13 29 5 6 5 3 16 21 6 6-6c-7-12-17-22-29-31-9-10-17-21-25-34 8-14 20-21 37-23l-7-17-7-14 18-25c11-8 22-17 31-28-6-13-16-23-29-32 0-8 2-18 4-29l25 4c10 1 18 0 24-5-11-7-20-17-29-31l6-47 51 7c1-13-2-27-8-40l-20-9 15-26 40-8 13-34v-12l6-36-18-5-33-29-2-8 10-20 60 18 1-18c-5-13-14-22-30-28l-6-47c6-14 14-28 23-43 4-15 14-27 30-36l33 28c9-9 20-17 33-24l15-11-19-13c-14-3-25 3-31 18l-27-27c-8-12-12-26-15-42 7-11 19-18 36-20l-16-39 7-39 7-10c9-12 16-27 23-42-4-15-6-30-6-47l40-143-67-31-344-71c4-8 8-17 11-27l21-47c-1-15 0-31 2-49l84-303c9 5 18 10 25 18l-2 48 18-24c8-12 17-23 29-33-8-12-18-22-29-31l-31-13 17-62 13 8 313 84 15 1zm189 55 21 6-10 23-11-29zm112 33 45 13-16 29-30-2v-41zm220 65 24 7-12 15c-6-7-10-14-13-22zm-121-28 28 8v15l-33-6 5-17zm294 101c8 9 15 20 18 32-13-6-19-17-18-32zm-861-211c5 8 13 14 25 18l-25-18zm1073 318-100 212-17 59c-1 6 0 10 4 13l100-212 16-56 6-6c-1-4-4-8-9-10zm-210-31-4 14 13-8-9-7zm-673-194c4 14 12 27 22 41-4-15-11-28-22-41zm-181-31-45-2c-11-1-24-1-37 0l-60-2c-2 7-1 13 2 19l126 11c7-8 12-16 15-26zm616 181-13 19 6 6 8-16 2-7-4-1zm257 95-6 9-6 32 3 16h23l14-22 3-11-4-1c-7-10-16-18-28-23zm-645-186c1 9 3 18 8 26l10-20-18-5zm234 72c-1 18 0 39 2 61l-8 43 19-1 11-27 1-30c0-17-9-32-25-45zm-285-80-13 22 1 8 14-22 2-7-4-1zm409 139-17 33 1 12-14 49 4 1 17-48 10-47zm91 38-3 37 13-8 14-22-24-7zm-416-111-31 6c-1 9 1 20 6 32l25 4 9-32c-1-4-4-7-9-10zm-138-7c1 9 4 17 12 23-2-8-6-16-12-23zm544 183-8 27 16-18c-1-4-4-8-8-10zm-511-139-8 28 17 5c2-11-1-22-10-33zm-46 13-23 1c0 10 2 19 8 29 14-3 24-12 30-25l-14-4zm209 65c-1 7 1 13 6 20 1-7-1-14-6-20zm119 50-10 23c11 8 23 16 36 22l6-36-32-9zm-402-80-7 24 19-2c2-10-2-18-13-22zm139 45-10 35 19 2c2-12-1-25-9-37zm-85 5-13 33 14 4c1-11 0-24-1-38zm342 104-4 25 23 3c1-13-5-22-19-28zm-453-126c-7 16-13 34-19 55l-108-35c-4-19-13-39-25-60-7 15-17 29-28 45-17-15-37-27-62-37l8 67 17 20 42 1 161 47 31 13 136 40c20 1 41 0 66-3l6-21-206-64c-4-3-4-7-4-13l16-44-31-9zm544 167-11 38 15 1c2-13 1-26-4-39zm329 97-10 23 24 7c2-13-3-23-14-31zm-414-65-28 45-73 58-16 33 9-5c13-8 27-15 44-21 13-4 26-11 37-23l26-41 15-41-14-4zm550 184c-12 3-23 9-32 21 6 11 14 20 26 30 11-4 20-11 29-22-3-11-10-20-22-29zm-772-110-17 62c10-2 19-5 29-10 14-4 23-14 31-29-12-9-27-17-43-23zm178 82c-9 6-17 16-23 27l17 5c7-8 14-18 19-28l-14-4zm65 22c-12 17-23 38-32 63-2 21-1 42 4 65 11-18 21-39 29-63l8-58-9-7zm74 71-15 29 14 4c3-10 3-22 1-33zm98 29-17 6 24 7c0-6-3-10-8-13zm-317-71-5 17 34 2-29-19zm-165-45c0 9 4 17 13 22 3-11-1-18-13-22zm-83-2c1 12 4 24 9 36l29 5 4-29-42-12zm112 59-10 23 37 15 15 1 9-20-52-19zm404 137 11 15c-2-6-5-11-11-15zm-455-118-8 16 25 4c-4-8-9-15-17-20zm-84 2c-1 21 8 38 28 49 2-20-7-37-28-49zm62 63-8 28 17 5c0-12-3-23-10-33zm324 140c2 19 12 32 30 43l9-32-39-11zm-267-22-13 45 18 5c1-16 0-34-5-50zm118 65-8 16 11 3c2-7 1-13-2-19zm90 30-13 57c1 11 5 23 10 33 7-15 16-43 27-82l-24-7zm148 66c-1 10 2 19 8 29 2-9-1-18-8-29zm-457-112-13 19 2 8 14 4c2-10 1-20-2-31zm86 29-6 21c3 0 6-2 9-5l-3-16zm-169-31c3 11 10 19 20 25 0-12-7-21-20-25zm61 79-8 16 31 9c-5-10-13-19-23-25zm359 151c1 9 4 17 12 23-1-9-5-17-12-23zm-276-55c-1 10 1 20 7 28l10-23-17-5zm179 64-21 20 21 6 17-21-17-5zm-281-79-14 37v26c9 15 23 27 43 35l-7-55c-2-15-9-30-22-44zm299 125-17 48 15 1 17-37-15-12zm-397-109 17 5c-6 7-14 13-24 19l7-24zm204 71-9 31 25 4c-2-13-8-25-17-35zm-11 64-7 24 14 4c0-10-2-19-8-29zm248 103-7 24 30 1c-6-10-14-18-23-25zm-73-10-21 35-23 95c-2 13-3 26-4 41l19-40 30-93c2-11 2-24-1-38zm164 131 24 7-12 30c-4 15-14 27-30 37-9-11-12-25-11-41l29-33zm-300-54c-1 7 1 14 6 21 2-8 0-15-6-21zm-79 11c4 8 9 14 17 20-3-7-8-14-17-20zm-142-34-20 17c-1 5 1 9 4 12 7-8 13-18 16-29zm368 145c-9 19-18 40-25 65l14 4 12-30 3-25-4-13zm-72 1-24 46-18 51-7 51c-3 16-3 32-2 49l21-47 34-107c1-14-1-28-4-43zm-208-57-25 23c-2 10 0 21 7 32 10-5 18-13 25-23 2-10 0-21-7-32zm-125 28c-6 4-9 8-12 15 6-4 10-9 12-15zm111 63-7 13-7 40 1 11c-2 17 0 33 5 50l14-37v-15l11-53-16-9zm72 25c-4 7-8 16-11 26l21 6c0-11-3-22-10-32zm187 62-12 19 15 1 12-16-14-4zm94 58c2 19 0 40-6 63-2-19 0-40 6-63zm-132-16c-3 17 3 30 19 40l8-16-3-16-24-7zm-346-33-16 3 25 34 20-28-28-8zm334 132-28 33 38 11 6-36-16-8zm-57-14-57 138 17 5c10-11 19-23 26-38l12-19 31 13c10-2 17-7 23-16l-17-5c-15-6-25-18-28-35l11-39-17-5zm104 50-14 7 9 25 13-22c-1-3-3-7-8-10zm-308-34-3 22 24 11c4-15 0-27-12-38l-9 5zm350 129 4 28c-4-8-5-18-4-28zm-274-62c-2 13 3 23 14 31 4-14-1-24-14-31zm148 55c-8 8-15 19-20 31l-12 83c4 10 10 18 20 24l8-81c5-10 12-20 20-32-1-9-6-18-15-27zm-284-54-21 9c-2 11-2 24 1 37 8-9 15-19 20-31l8-13-7-2zm-150-32-13 34 1 11c3 14 4 28 3 43l-10 50c4 12 12 23 21 33l24-99 2-45c-6-10-15-19-27-27zm475 143-9 20 17 5c1-9-1-17-8-25zm-399-91-5 17 17-6-12-11zm143 42-22-3c1 9 3 17 8 25l19-2c2-8 0-14-5-20zm139 59-10 50c-1 5 0 10 4 13l16-56-10-7zm-225 32c0 6 2 12 7 17 0-6-2-12-7-17zm196 72-11 12 14 4-3-16zm-339-77c-12 11-23 22-33 36l-27 45 26 31 10 44c8 0 16-1 24-5-3-13-8-27-15-42l13-61c4-15 5-31 2-48zm269 83-19 25h15l18-21-14-4zm-125-14 1 12 3-11-4-1zm-108-5c-2 16 5 27 20 36 2-16-5-28-20-36zm90 45c-14 3-27 10-39 19l48 3 30 16 5-17-43-20zm78 46c1 5 3 11 7 17 1-7-1-13-7-17zm-154-19-24 19 14 4 19-14c-1-4-4-7-9-10zm214 63-9 31 12-4 10-23-14-4zm-89 45-7 13 16-3c-1-4-4-8-9-10zm-206-46-25 34-12 30 9 10c4 11 4 24 0 38l-9 20 14-11c13 1 25 0 39-4l-8-40c-2-15-3-30-2-46l11-27-17-5zm126 37c5 8 12 15 21 21l4-14-24-7zm303 119 17 5-15 30-2-35zm-296 57c5 5 7 11 7 17l-17 7 2-22 7 2 1-4zm233 103 28 8-6 21-23 27-20 6 6-21 15-41zm-196-47c14 7 25 17 34 29l-41-5 7-24zm-668-16353c-149-23-294-51-438-84 56-215 112-429 168-630 210-798 201-583-299-1451-126-224-145-215-187-466 1119 751 1045 812 2542 1077l-448 187c-970 340-770 182-1133 938-56 117-126 266-201 429h-5zm2411-9287c37 387 229 704 420 984 187 271 406 723 774 905 546-438 2379-1427 2934-1819 345-243 742-368 1007-676 28-606-784-2015-1357-2309l-3778 2920v-5zm-331-3606c854 1255 1824 751 709 2799l2449-1959c285-243 611-420 835-718-61-504-1091-1964-1847-2118-299 219-1996 1772-2150 2001l5-5zm6190 5597 56-196c-149-378-275-1339-840-1791-410 182-574 289-928 532l-928 564c-252 173-364 168-928 564-336 238-695 299-966 634 56 522 354 1199 826 1465 686-415 3167-1460 3703-1768l5-5zm-6054-9520-308-89-2080 2066 1875 1647c317-201 1824-1595 2062-1866-23-373-289-658-583-956-448-452-863-700-961-798l-5-5zm-11437 36018 5303 1521 1115-3895 3955 1133 1535-5364-3955-1133 1591-5532c3965 189 6988-661 10294-2929 522-359 1493-1189 1945-1628 145-140 313-327 443-480 145-168 271-345 415-532 163-210 289-327 434-504 121-154 238-387 345-574 135-233 271-382 401-564 229-317 471-933 672-1353 438-905 872-1978 1105-3134 406-2015 448-3731 98-5658-303-1679-816-3242-1651-4734-518-924-676-1236-1367-2043l-793-984c-1017-1143-2962-2593-4338-3246l-1367-616c-9-5-23-19-33-28l-2206-634c-84 23-5 19-140 9l-574-89c-247-28-513-65-765-98-1623-187-3797 9-5355 443l-1199 406c-1502 564-1912 746-3312 1647-373 238-644 485-1003 765-3055 2365-5084 5919-5509 9804-47 415-149 1026-154 1460l28 1409c368 2957 858 4608 2425 7108 280 448 1129 1651 1483 1978 1017 928 1679 1786 3008 2556 434 252 868 485 1287 709-539 1829-1036 3705-1525 5551l-3899-1119-1535 5364 3904 1119-1124 3895 14-5z"/> </svg>